<?xml version="1.0" encoding="UTF-8"?>
<svg xmlns="http://www.w3.org/2000/svg" xmlns:xlink="http://www.w3.org/1999/xlink" width="756pt" height="396pt" viewBox="0 0 756 396" version="1.1">
<defs>
<clipPath id="clip1">
  <path d="M 55.289062 279 L 726.113281 279 L 726.113281 281 L 55.289062 281 Z M 55.289062 279 "/>
</clipPath>
<clipPath id="clip2">
  <path d="M 55.289062 185 L 726.113281 185 L 726.113281 186 L 55.289062 186 Z M 55.289062 185 "/>
</clipPath>
<clipPath id="clip3">
  <path d="M 55.289062 91 L 726.113281 91 L 726.113281 92 L 55.289062 92 Z M 55.289062 91 "/>
</clipPath>
<clipPath id="clip4">
  <path d="M 55.289062 327 L 726.113281 327 L 726.113281 328 L 55.289062 328 Z M 55.289062 327 "/>
</clipPath>
<clipPath id="clip5">
  <path d="M 55.289062 232 L 726.113281 232 L 726.113281 234 L 55.289062 234 Z M 55.289062 232 "/>
</clipPath>
<clipPath id="clip6">
  <path d="M 55.289062 138 L 726.113281 138 L 726.113281 139 L 55.289062 139 Z M 55.289062 138 "/>
</clipPath>
<clipPath id="clip7">
  <path d="M 55.289062 43 L 726.113281 43 L 726.113281 45 L 55.289062 45 Z M 55.289062 43 "/>
</clipPath>
<clipPath id="clip8">
  <path d="M 94 29.886719 L 95 29.886719 L 95 341.433594 L 94 341.433594 Z M 94 29.886719 "/>
</clipPath>
<clipPath id="clip9">
  <path d="M 160 29.886719 L 161 29.886719 L 161 341.433594 L 160 341.433594 Z M 160 29.886719 "/>
</clipPath>
<clipPath id="clip10">
  <path d="M 226 29.886719 L 227 29.886719 L 227 341.433594 L 226 341.433594 Z M 226 29.886719 "/>
</clipPath>
<clipPath id="clip11">
  <path d="M 291 29.886719 L 293 29.886719 L 293 341.433594 L 291 341.433594 Z M 291 29.886719 "/>
</clipPath>
<clipPath id="clip12">
  <path d="M 357 29.886719 L 359 29.886719 L 359 341.433594 L 357 341.433594 Z M 357 29.886719 "/>
</clipPath>
<clipPath id="clip13">
  <path d="M 423 29.886719 L 424 29.886719 L 424 341.433594 L 423 341.433594 Z M 423 29.886719 "/>
</clipPath>
<clipPath id="clip14">
  <path d="M 489 29.886719 L 490 29.886719 L 490 341.433594 L 489 341.433594 Z M 489 29.886719 "/>
</clipPath>
<clipPath id="clip15">
  <path d="M 554 29.886719 L 556 29.886719 L 556 341.433594 L 554 341.433594 Z M 554 29.886719 "/>
</clipPath>
<clipPath id="clip16">
  <path d="M 620 29.886719 L 622 29.886719 L 622 341.433594 L 620 341.433594 Z M 620 29.886719 "/>
</clipPath>
<clipPath id="clip17">
  <path d="M 686 29.886719 L 687 29.886719 L 687 341.433594 L 686 341.433594 Z M 686 29.886719 "/>
</clipPath>
</defs>
<g id="surface134">
<rect x="0" y="0" width="756" height="396" style="fill:rgb(100%,100%,100%);fill-opacity:1;stroke:none;"/>
<g clip-path="url(#clip1)" clip-rule="nonzero">
<path style="fill:none;stroke-width:0.320094;stroke-linecap:butt;stroke-linejoin:round;stroke:rgb(80%,80%,80%);stroke-opacity:1;stroke-miterlimit:10;" d="M 55.289062 280.070312 L 726.113281 280.070312 "/>
</g>
<g clip-path="url(#clip2)" clip-rule="nonzero">
<path style="fill:none;stroke-width:0.320094;stroke-linecap:butt;stroke-linejoin:round;stroke:rgb(80%,80%,80%);stroke-opacity:1;stroke-miterlimit:10;" d="M 55.289062 185.660156 L 726.113281 185.660156 "/>
</g>
<g clip-path="url(#clip3)" clip-rule="nonzero">
<path style="fill:none;stroke-width:0.320094;stroke-linecap:butt;stroke-linejoin:round;stroke:rgb(80%,80%,80%);stroke-opacity:1;stroke-miterlimit:10;" d="M 55.289062 91.253906 L 726.113281 91.253906 "/>
</g>
<g clip-path="url(#clip4)" clip-rule="nonzero">
<path style="fill:none;stroke-width:0.426791;stroke-linecap:butt;stroke-linejoin:round;stroke:rgb(80%,80%,80%);stroke-opacity:1;stroke-miterlimit:10;" d="M 55.289062 327.273438 L 726.113281 327.273438 "/>
</g>
<g clip-path="url(#clip5)" clip-rule="nonzero">
<path style="fill:none;stroke-width:0.426791;stroke-linecap:butt;stroke-linejoin:round;stroke:rgb(80%,80%,80%);stroke-opacity:1;stroke-miterlimit:10;" d="M 55.289062 232.867188 L 726.113281 232.867188 "/>
</g>
<g clip-path="url(#clip6)" clip-rule="nonzero">
<path style="fill:none;stroke-width:0.426791;stroke-linecap:butt;stroke-linejoin:round;stroke:rgb(80%,80%,80%);stroke-opacity:1;stroke-miterlimit:10;" d="M 55.289062 138.457031 L 726.113281 138.457031 "/>
</g>
<g clip-path="url(#clip7)" clip-rule="nonzero">
<path style="fill:none;stroke-width:0.426791;stroke-linecap:butt;stroke-linejoin:round;stroke:rgb(80%,80%,80%);stroke-opacity:1;stroke-miterlimit:10;" d="M 55.289062 44.050781 L 726.113281 44.050781 "/>
</g>
<g clip-path="url(#clip8)" clip-rule="nonzero">
<path style="fill:none;stroke-width:0.426791;stroke-linecap:butt;stroke-linejoin:round;stroke:rgb(80%,80%,80%);stroke-opacity:1;stroke-miterlimit:10;" d="M 94.75 341.433594 L 94.75 29.886719 "/>
</g>
<g clip-path="url(#clip9)" clip-rule="nonzero">
<path style="fill:none;stroke-width:0.426791;stroke-linecap:butt;stroke-linejoin:round;stroke:rgb(80%,80%,80%);stroke-opacity:1;stroke-miterlimit:10;" d="M 160.515625 341.433594 L 160.515625 29.886719 "/>
</g>
<g clip-path="url(#clip10)" clip-rule="nonzero">
<path style="fill:none;stroke-width:0.426791;stroke-linecap:butt;stroke-linejoin:round;stroke:rgb(80%,80%,80%);stroke-opacity:1;stroke-miterlimit:10;" d="M 226.285156 341.433594 L 226.285156 29.886719 "/>
</g>
<g clip-path="url(#clip11)" clip-rule="nonzero">
<path style="fill:none;stroke-width:0.426791;stroke-linecap:butt;stroke-linejoin:round;stroke:rgb(80%,80%,80%);stroke-opacity:1;stroke-miterlimit:10;" d="M 292.050781 341.433594 L 292.050781 29.886719 "/>
</g>
<g clip-path="url(#clip12)" clip-rule="nonzero">
<path style="fill:none;stroke-width:0.426791;stroke-linecap:butt;stroke-linejoin:round;stroke:rgb(80%,80%,80%);stroke-opacity:1;stroke-miterlimit:10;" d="M 357.816406 341.433594 L 357.816406 29.886719 "/>
</g>
<g clip-path="url(#clip13)" clip-rule="nonzero">
<path style="fill:none;stroke-width:0.426791;stroke-linecap:butt;stroke-linejoin:round;stroke:rgb(80%,80%,80%);stroke-opacity:1;stroke-miterlimit:10;" d="M 423.585938 341.433594 L 423.585938 29.886719 "/>
</g>
<g clip-path="url(#clip14)" clip-rule="nonzero">
<path style="fill:none;stroke-width:0.426791;stroke-linecap:butt;stroke-linejoin:round;stroke:rgb(80%,80%,80%);stroke-opacity:1;stroke-miterlimit:10;" d="M 489.351562 341.433594 L 489.351562 29.886719 "/>
</g>
<g clip-path="url(#clip15)" clip-rule="nonzero">
<path style="fill:none;stroke-width:0.426791;stroke-linecap:butt;stroke-linejoin:round;stroke:rgb(80%,80%,80%);stroke-opacity:1;stroke-miterlimit:10;" d="M 555.117188 341.433594 L 555.117188 29.886719 "/>
</g>
<g clip-path="url(#clip16)" clip-rule="nonzero">
<path style="fill:none;stroke-width:0.426791;stroke-linecap:butt;stroke-linejoin:round;stroke:rgb(80%,80%,80%);stroke-opacity:1;stroke-miterlimit:10;" d="M 620.886719 341.433594 L 620.886719 29.886719 "/>
</g>
<g clip-path="url(#clip17)" clip-rule="nonzero">
<path style="fill:none;stroke-width:0.426791;stroke-linecap:butt;stroke-linejoin:round;stroke:rgb(80%,80%,80%);stroke-opacity:1;stroke-miterlimit:10;" d="M 686.652344 341.433594 L 686.652344 29.886719 "/>
</g>
<path style="fill-rule:nonzero;fill:rgb(54.509804%,14.509804%,10.980392%);fill-opacity:1;stroke-width:1.066978;stroke-linecap:square;stroke-linejoin:miter;stroke:rgb(0%,0%,0%);stroke-opacity:1;stroke-miterlimit:10;" d="M 65.15625 327.273438 L 124.347656 327.273438 L 124.347656 44.046875 L 65.15625 44.046875 Z M 65.15625 327.273438 "/>
<path style="fill-rule:nonzero;fill:rgb(54.509804%,14.509804%,10.980392%);fill-opacity:1;stroke-width:1.066978;stroke-linecap:square;stroke-linejoin:miter;stroke:rgb(0%,0%,0%);stroke-opacity:1;stroke-miterlimit:10;" d="M 130.921875 327.273438 L 190.113281 327.273438 L 190.113281 242.304688 L 130.921875 242.304688 Z M 130.921875 327.273438 "/>
<path style="fill-rule:nonzero;fill:rgb(54.509804%,14.509804%,10.980392%);fill-opacity:1;stroke-width:1.066978;stroke-linecap:square;stroke-linejoin:miter;stroke:rgb(0%,0%,0%);stroke-opacity:1;stroke-miterlimit:10;" d="M 196.6875 327.273438 L 255.878906 327.273438 L 255.878906 213.984375 L 196.6875 213.984375 Z M 196.6875 327.273438 "/>
<path style="fill-rule:nonzero;fill:rgb(54.509804%,14.509804%,10.980392%);fill-opacity:1;stroke-width:1.066978;stroke-linecap:square;stroke-linejoin:miter;stroke:rgb(0%,0%,0%);stroke-opacity:1;stroke-miterlimit:10;" d="M 262.457031 327.273438 L 321.648438 327.273438 L 321.648438 280.070312 L 262.457031 280.070312 Z M 262.457031 327.273438 "/>
<path style="fill-rule:nonzero;fill:rgb(54.509804%,14.509804%,10.980392%);fill-opacity:1;stroke-width:1.066978;stroke-linecap:square;stroke-linejoin:miter;stroke:rgb(0%,0%,0%);stroke-opacity:1;stroke-miterlimit:10;" d="M 328.222656 327.273438 L 387.414062 327.273438 L 387.414062 270.628906 L 328.222656 270.628906 Z M 328.222656 327.273438 "/>
<path style="fill-rule:nonzero;fill:rgb(54.509804%,14.509804%,10.980392%);fill-opacity:1;stroke-width:1.066978;stroke-linecap:square;stroke-linejoin:miter;stroke:rgb(0%,0%,0%);stroke-opacity:1;stroke-miterlimit:10;" d="M 393.988281 327.273438 L 453.179688 327.273438 L 453.179688 261.1875 L 393.988281 261.1875 Z M 393.988281 327.273438 "/>
<path style="fill-rule:nonzero;fill:rgb(54.509804%,14.509804%,10.980392%);fill-opacity:1;stroke-width:1.066978;stroke-linecap:square;stroke-linejoin:miter;stroke:rgb(0%,0%,0%);stroke-opacity:1;stroke-miterlimit:10;" d="M 459.757812 327.273438 L 518.949219 327.273438 L 518.949219 280.070312 L 459.757812 280.070312 Z M 459.757812 327.273438 "/>
<path style="fill-rule:nonzero;fill:rgb(54.509804%,14.509804%,10.980392%);fill-opacity:1;stroke-width:1.066978;stroke-linecap:square;stroke-linejoin:miter;stroke:rgb(0%,0%,0%);stroke-opacity:1;stroke-miterlimit:10;" d="M 525.523438 327.273438 L 584.714844 327.273438 L 584.714844 308.390625 L 525.523438 308.390625 Z M 525.523438 327.273438 "/>
<path style="fill-rule:nonzero;fill:rgb(54.509804%,14.509804%,10.980392%);fill-opacity:1;stroke-width:1.066978;stroke-linecap:square;stroke-linejoin:miter;stroke:rgb(0%,0%,0%);stroke-opacity:1;stroke-miterlimit:10;" d="M 591.289062 327.273438 L 650.480469 327.273438 L 650.480469 308.390625 L 591.289062 308.390625 Z M 591.289062 327.273438 "/>
<path style="fill-rule:nonzero;fill:rgb(54.509804%,14.509804%,10.980392%);fill-opacity:1;stroke-width:1.066978;stroke-linecap:square;stroke-linejoin:miter;stroke:rgb(0%,0%,0%);stroke-opacity:1;stroke-miterlimit:10;" d="M 657.058594 327.273438 L 716.25 327.273438 L 716.25 157.339844 L 657.058594 157.339844 Z M 657.058594 327.273438 "/>
<path style=" stroke:none;fill-rule:nonzero;fill:rgb(30.196078%,30.196078%,30.196078%);fill-opacity:1;" d="M 51.773438 327.875 L 51.769531 328.226562 L 51.753906 328.5625 L 51.726562 328.878906 L 51.6875 329.175781 L 51.640625 329.457031 L 51.582031 329.71875 L 51.515625 329.960938 L 51.4375 330.183594 L 51.347656 330.390625 L 51.246094 330.582031 L 51.132812 330.75 L 51.011719 330.902344 L 50.875 331.035156 L 50.726562 331.152344 L 50.566406 331.25 L 50.394531 331.332031 L 50.210938 331.394531 L 50.015625 331.4375 L 49.808594 331.464844 L 49.589844 331.472656 L 49.375 331.464844 L 49.171875 331.441406 L 48.980469 331.398438 L 48.800781 331.335938 L 48.632812 331.257812 L 48.476562 331.164062 L 48.328125 331.054688 L 48.191406 330.925781 L 48.070312 330.777344 L 47.957031 330.613281 L 47.851562 330.433594 L 47.761719 330.238281 L 47.679688 330.023438 L 47.605469 329.789062 L 47.546875 329.539062 L 47.496094 329.273438 L 47.453125 328.988281 L 47.421875 328.6875 L 47.402344 328.367188 L 47.394531 328.03125 L 47.394531 326.628906 L 47.398438 326.277344 L 47.414062 325.949219 L 47.441406 325.636719 L 47.476562 325.339844 L 47.527344 325.0625 L 47.582031 324.804688 L 47.652344 324.566406 L 47.730469 324.34375 L 47.820312 324.140625 L 47.921875 323.957031 L 48.035156 323.789062 L 48.160156 323.636719 L 48.292969 323.503906 L 48.441406 323.390625 L 48.601562 323.292969 L 48.773438 323.214844 L 48.957031 323.152344 L 49.152344 323.109375 L 49.359375 323.082031 L 49.578125 323.074219 L 49.792969 323.082031 L 49.996094 323.105469 L 50.191406 323.148438 L 50.371094 323.207031 L 50.539062 323.28125 L 50.699219 323.375 L 50.84375 323.484375 L 50.976562 323.609375 L 51.101562 323.75 L 51.210938 323.910156 L 51.3125 324.085938 L 51.40625 324.28125 L 51.488281 324.488281 L 51.558594 324.71875 L 51.621094 324.960938 L 51.671875 325.222656 L 51.710938 325.503906 L 51.742188 325.800781 L 51.761719 326.113281 L 51.773438 326.441406 Z M 50.78125 326.453125 L 50.777344 326.203125 L 50.769531 325.960938 L 50.753906 325.738281 L 50.734375 325.527344 L 50.707031 325.328125 L 50.675781 325.144531 L 50.640625 324.972656 L 50.597656 324.816406 L 50.546875 324.675781 L 50.492188 324.542969 L 50.433594 324.425781 L 50.363281 324.324219 L 50.289062 324.230469 L 50.210938 324.148438 L 50.121094 324.082031 L 50.027344 324.027344 L 49.925781 323.984375 L 49.816406 323.953125 L 49.699219 323.933594 L 49.578125 323.925781 L 49.457031 323.933594 L 49.347656 323.953125 L 49.238281 323.980469 L 49.140625 324.023438 L 49.046875 324.078125 L 48.960938 324.144531 L 48.878906 324.222656 L 48.808594 324.316406 L 48.738281 324.417969 L 48.679688 324.535156 L 48.625 324.660156 L 48.574219 324.796875 L 48.53125 324.949219 L 48.496094 325.113281 L 48.460938 325.289062 L 48.433594 325.476562 L 48.414062 325.675781 L 48.398438 325.890625 L 48.386719 326.117188 L 48.382812 326.351562 L 48.382812 328.039062 L 48.386719 328.289062 L 48.394531 328.527344 L 48.410156 328.753906 L 48.429688 328.96875 L 48.457031 329.167969 L 48.488281 329.355469 L 48.527344 329.53125 L 48.574219 329.695312 L 48.625 329.84375 L 48.679688 329.980469 L 48.742188 330.101562 L 48.8125 330.210938 L 48.886719 330.308594 L 48.96875 330.394531 L 49.054688 330.464844 L 49.148438 330.523438 L 49.25 330.566406 L 49.355469 330.601562 L 49.46875 330.621094 L 49.589844 330.625 L 49.707031 330.621094 L 49.820312 330.601562 L 49.925781 330.570312 L 50.023438 330.527344 L 50.117188 330.472656 L 50.203125 330.40625 L 50.28125 330.328125 L 50.355469 330.234375 L 50.421875 330.128906 L 50.480469 330.015625 L 50.535156 329.886719 L 50.585938 329.742188 L 50.628906 329.589844 L 50.667969 329.421875 L 50.699219 329.242188 L 50.726562 329.046875 L 50.75 328.839844 L 50.765625 328.621094 L 50.773438 328.390625 L 50.78125 328.144531 Z M 50.78125 326.453125 "/>
<path style=" stroke:none;fill-rule:nonzero;fill:rgb(30.196078%,30.196078%,30.196078%);fill-opacity:1;" d="M 44.6875 236.953125 L 43.6875 236.953125 L 43.6875 230.03125 L 41.96875 230.800781 L 41.96875 229.855469 L 44.53125 228.738281 L 44.6875 228.738281 Z M 44.6875 236.953125 "/>
<path style=" stroke:none;fill-rule:nonzero;fill:rgb(30.196078%,30.196078%,30.196078%);fill-opacity:1;" d="M 51.773438 233.464844 L 51.769531 233.820312 L 51.753906 234.152344 L 51.726562 234.46875 L 51.6875 234.765625 L 51.640625 235.046875 L 51.582031 235.308594 L 51.515625 235.550781 L 51.4375 235.777344 L 51.347656 235.984375 L 51.246094 236.171875 L 51.132812 236.34375 L 51.011719 236.496094 L 50.875 236.628906 L 50.726562 236.746094 L 50.566406 236.84375 L 50.394531 236.921875 L 50.210938 236.984375 L 50.015625 237.03125 L 49.808594 237.058594 L 49.589844 237.066406 L 49.375 237.058594 L 49.171875 237.03125 L 48.980469 236.988281 L 48.800781 236.929688 L 48.632812 236.851562 L 48.476562 236.757812 L 48.328125 236.644531 L 48.191406 236.515625 L 48.070312 236.371094 L 47.957031 236.207031 L 47.851562 236.027344 L 47.761719 235.828125 L 47.679688 235.613281 L 47.605469 235.382812 L 47.546875 235.132812 L 47.496094 234.863281 L 47.453125 234.582031 L 47.421875 234.277344 L 47.402344 233.960938 L 47.394531 233.625 L 47.394531 232.21875 L 47.398438 231.871094 L 47.414062 231.539062 L 47.441406 231.226562 L 47.476562 230.933594 L 47.527344 230.65625 L 47.582031 230.398438 L 47.652344 230.15625 L 47.730469 229.9375 L 47.820312 229.734375 L 47.921875 229.546875 L 48.035156 229.378906 L 48.160156 229.230469 L 48.292969 229.097656 L 48.441406 228.984375 L 48.601562 228.886719 L 48.773438 228.804688 L 48.957031 228.746094 L 49.152344 228.699219 L 49.359375 228.675781 L 49.578125 228.664062 L 49.792969 228.671875 L 49.996094 228.699219 L 50.191406 228.742188 L 50.371094 228.800781 L 50.539062 228.875 L 50.699219 228.964844 L 50.84375 229.074219 L 50.976562 229.199219 L 51.101562 229.34375 L 51.210938 229.503906 L 51.3125 229.679688 L 51.40625 229.871094 L 51.488281 230.082031 L 51.558594 230.308594 L 51.621094 230.554688 L 51.671875 230.816406 L 51.710938 231.09375 L 51.742188 231.390625 L 51.761719 231.703125 L 51.773438 232.035156 Z M 50.78125 232.046875 L 50.777344 231.792969 L 50.769531 231.554688 L 50.753906 231.328125 L 50.734375 231.117188 L 50.707031 230.921875 L 50.675781 230.734375 L 50.640625 230.566406 L 50.597656 230.410156 L 50.546875 230.265625 L 50.492188 230.136719 L 50.433594 230.019531 L 50.363281 229.914062 L 50.289062 229.820312 L 50.210938 229.742188 L 50.121094 229.671875 L 50.027344 229.617188 L 49.925781 229.574219 L 49.816406 229.542969 L 49.699219 229.523438 L 49.578125 229.519531 L 49.457031 229.523438 L 49.347656 229.542969 L 49.238281 229.574219 L 49.140625 229.617188 L 49.046875 229.671875 L 48.960938 229.738281 L 48.878906 229.816406 L 48.808594 229.90625 L 48.738281 230.011719 L 48.679688 230.125 L 48.625 230.25 L 48.574219 230.390625 L 48.53125 230.542969 L 48.496094 230.703125 L 48.460938 230.878906 L 48.433594 231.070312 L 48.414062 231.269531 L 48.398438 231.480469 L 48.386719 231.707031 L 48.382812 231.945312 L 48.382812 233.628906 L 48.386719 233.882812 L 48.394531 234.121094 L 48.410156 234.347656 L 48.429688 234.558594 L 48.457031 234.761719 L 48.488281 234.949219 L 48.527344 235.125 L 48.574219 235.285156 L 48.625 235.433594 L 48.679688 235.570312 L 48.742188 235.695312 L 48.8125 235.804688 L 48.886719 235.902344 L 48.96875 235.984375 L 49.054688 236.054688 L 49.148438 236.113281 L 49.25 236.160156 L 49.355469 236.191406 L 49.46875 236.210938 L 49.589844 236.21875 L 49.707031 236.210938 L 49.820312 236.195312 L 49.925781 236.164062 L 50.023438 236.121094 L 50.117188 236.066406 L 50.203125 235.996094 L 50.28125 235.917969 L 50.355469 235.828125 L 50.421875 235.722656 L 50.480469 235.605469 L 50.535156 235.476562 L 50.585938 235.335938 L 50.628906 235.179688 L 50.667969 235.011719 L 50.699219 234.832031 L 50.726562 234.640625 L 50.75 234.433594 L 50.765625 234.214844 L 50.773438 233.980469 L 50.78125 233.734375 Z M 50.78125 232.046875 "/>
<path style=" stroke:none;fill-rule:nonzero;fill:rgb(30.196078%,30.196078%,30.196078%);fill-opacity:1;" d="M 46.296875 142.546875 L 41.726562 142.546875 L 41.726562 141.796875 L 44.058594 138.710938 L 44.160156 138.570312 L 44.257812 138.433594 L 44.347656 138.304688 L 44.429688 138.179688 L 44.503906 138.0625 L 44.574219 137.949219 L 44.636719 137.839844 L 44.695312 137.734375 L 44.746094 137.636719 L 44.789062 137.542969 L 44.828125 137.449219 L 44.863281 137.355469 L 44.894531 137.261719 L 44.921875 137.164062 L 44.945312 137.070312 L 44.960938 136.972656 L 44.976562 136.871094 L 44.988281 136.773438 L 44.996094 136.570312 L 44.992188 136.441406 L 44.984375 136.320312 L 44.96875 136.203125 L 44.949219 136.089844 L 44.921875 135.980469 L 44.886719 135.878906 L 44.847656 135.78125 L 44.800781 135.6875 L 44.75 135.597656 L 44.691406 135.515625 L 44.628906 135.4375 L 44.5625 135.371094 L 44.492188 135.308594 L 44.417969 135.257812 L 44.34375 135.210938 L 44.261719 135.175781 L 44.175781 135.148438 L 44.085938 135.125 L 43.992188 135.113281 L 43.894531 135.109375 L 43.773438 135.113281 L 43.65625 135.128906 L 43.546875 135.148438 L 43.441406 135.179688 L 43.34375 135.21875 L 43.25 135.265625 L 43.160156 135.324219 L 43.078125 135.386719 L 43 135.460938 L 42.929688 135.542969 L 42.867188 135.632812 L 42.808594 135.730469 L 42.757812 135.832031 L 42.714844 135.945312 L 42.675781 136.066406 L 42.648438 136.191406 L 42.625 136.328125 L 42.605469 136.46875 L 42.597656 136.621094 L 42.59375 136.777344 L 41.597656 136.777344 L 41.605469 136.558594 L 41.625 136.34375 L 41.65625 136.140625 L 41.699219 135.945312 L 41.753906 135.757812 L 41.820312 135.578125 L 41.902344 135.410156 L 41.996094 135.25 L 42.097656 135.097656 L 42.214844 134.953125 L 42.34375 134.820312 L 42.480469 134.703125 L 42.628906 134.597656 L 42.78125 134.507812 L 42.945312 134.429688 L 43.117188 134.367188 L 43.296875 134.320312 L 43.488281 134.285156 L 43.6875 134.265625 L 43.894531 134.257812 L 44.085938 134.261719 L 44.269531 134.28125 L 44.445312 134.3125 L 44.609375 134.351562 L 44.769531 134.40625 L 44.917969 134.472656 L 45.058594 134.550781 L 45.191406 134.640625 L 45.316406 134.742188 L 45.433594 134.859375 L 45.539062 134.980469 L 45.636719 135.113281 L 45.71875 135.25 L 45.792969 135.398438 L 45.855469 135.554688 L 45.90625 135.714844 L 45.945312 135.886719 L 45.972656 136.066406 L 45.988281 136.253906 L 45.996094 136.445312 L 45.984375 136.695312 L 45.945312 136.949219 L 45.882812 137.214844 L 45.792969 137.488281 L 45.679688 137.769531 L 45.539062 138.0625 L 45.375 138.363281 L 45.1875 138.671875 L 44.972656 138.988281 L 44.730469 139.316406 L 42.914062 141.699219 L 46.296875 141.699219 Z M 46.296875 142.546875 "/>
<path style=" stroke:none;fill-rule:nonzero;fill:rgb(30.196078%,30.196078%,30.196078%);fill-opacity:1;" d="M 51.773438 139.058594 L 51.769531 139.410156 L 51.753906 139.746094 L 51.726562 140.0625 L 51.6875 140.359375 L 51.640625 140.640625 L 51.582031 140.902344 L 51.515625 141.144531 L 51.4375 141.367188 L 51.347656 141.574219 L 51.246094 141.765625 L 51.132812 141.933594 L 51.011719 142.085938 L 50.875 142.21875 L 50.726562 142.335938 L 50.566406 142.433594 L 50.394531 142.515625 L 50.210938 142.578125 L 50.015625 142.621094 L 49.808594 142.648438 L 49.589844 142.65625 L 49.375 142.648438 L 49.171875 142.625 L 48.980469 142.582031 L 48.800781 142.519531 L 48.632812 142.441406 L 48.476562 142.347656 L 48.328125 142.238281 L 48.191406 142.109375 L 48.070312 141.960938 L 47.957031 141.796875 L 47.851562 141.617188 L 47.761719 141.421875 L 47.679688 141.207031 L 47.605469 140.972656 L 47.546875 140.722656 L 47.496094 140.457031 L 47.453125 140.171875 L 47.421875 139.871094 L 47.402344 139.550781 L 47.394531 139.214844 L 47.394531 137.8125 L 47.398438 137.460938 L 47.414062 137.132812 L 47.441406 136.820312 L 47.476562 136.523438 L 47.527344 136.246094 L 47.582031 135.988281 L 47.652344 135.75 L 47.730469 135.527344 L 47.820312 135.324219 L 47.921875 135.140625 L 48.035156 134.972656 L 48.160156 134.820312 L 48.292969 134.6875 L 48.441406 134.574219 L 48.601562 134.476562 L 48.773438 134.398438 L 48.957031 134.335938 L 49.152344 134.292969 L 49.359375 134.265625 L 49.578125 134.257812 L 49.792969 134.265625 L 49.996094 134.289062 L 50.191406 134.332031 L 50.371094 134.390625 L 50.539062 134.464844 L 50.699219 134.558594 L 50.84375 134.667969 L 50.976562 134.792969 L 51.101562 134.933594 L 51.210938 135.09375 L 51.3125 135.269531 L 51.40625 135.464844 L 51.488281 135.671875 L 51.558594 135.902344 L 51.621094 136.144531 L 51.671875 136.40625 L 51.710938 136.6875 L 51.742188 136.980469 L 51.761719 137.296875 L 51.773438 137.625 Z M 50.78125 137.636719 L 50.777344 137.386719 L 50.769531 137.144531 L 50.753906 136.921875 L 50.734375 136.710938 L 50.707031 136.511719 L 50.675781 136.328125 L 50.640625 136.15625 L 50.597656 136 L 50.546875 135.859375 L 50.492188 135.726562 L 50.433594 135.609375 L 50.363281 135.507812 L 50.289062 135.414062 L 50.210938 135.332031 L 50.121094 135.265625 L 50.027344 135.210938 L 49.925781 135.167969 L 49.816406 135.136719 L 49.699219 135.117188 L 49.578125 135.109375 L 49.457031 135.117188 L 49.347656 135.136719 L 49.238281 135.164062 L 49.140625 135.207031 L 49.046875 135.261719 L 48.960938 135.328125 L 48.878906 135.40625 L 48.808594 135.5 L 48.738281 135.601562 L 48.679688 135.71875 L 48.625 135.84375 L 48.574219 135.980469 L 48.53125 136.132812 L 48.496094 136.296875 L 48.460938 136.472656 L 48.433594 136.660156 L 48.414062 136.859375 L 48.398438 137.074219 L 48.386719 137.300781 L 48.382812 137.535156 L 48.382812 139.222656 L 48.386719 139.472656 L 48.394531 139.710938 L 48.410156 139.9375 L 48.429688 140.152344 L 48.457031 140.351562 L 48.488281 140.539062 L 48.527344 140.714844 L 48.574219 140.878906 L 48.625 141.027344 L 48.679688 141.164062 L 48.742188 141.285156 L 48.8125 141.394531 L 48.886719 141.492188 L 48.96875 141.578125 L 49.054688 141.648438 L 49.148438 141.707031 L 49.25 141.75 L 49.355469 141.785156 L 49.46875 141.804688 L 49.589844 141.808594 L 49.707031 141.804688 L 49.820312 141.785156 L 49.925781 141.753906 L 50.023438 141.710938 L 50.117188 141.65625 L 50.203125 141.589844 L 50.28125 141.511719 L 50.355469 141.417969 L 50.421875 141.3125 L 50.480469 141.199219 L 50.535156 141.070312 L 50.585938 140.925781 L 50.628906 140.773438 L 50.667969 140.605469 L 50.699219 140.425781 L 50.726562 140.230469 L 50.75 140.023438 L 50.765625 139.804688 L 50.773438 139.574219 L 50.78125 139.328125 Z M 50.78125 137.636719 "/>
<path style=" stroke:none;fill-rule:nonzero;fill:rgb(30.196078%,30.196078%,30.196078%);fill-opacity:1;" d="M 42.996094 43.542969 L 43.632812 43.542969 L 43.75 43.539062 L 43.863281 43.527344 L 43.972656 43.511719 L 44.078125 43.484375 L 44.171875 43.449219 L 44.265625 43.410156 L 44.351562 43.359375 L 44.429688 43.304688 L 44.507812 43.238281 L 44.574219 43.167969 L 44.636719 43.089844 L 44.695312 43.007812 L 44.742188 42.917969 L 44.785156 42.824219 L 44.824219 42.722656 L 44.851562 42.617188 L 44.875 42.507812 L 44.894531 42.390625 L 44.902344 42.265625 L 44.90625 42.140625 L 44.894531 41.867188 L 44.863281 41.621094 L 44.804688 41.40625 L 44.726562 41.21875 L 44.628906 41.0625 L 44.507812 40.933594 L 44.363281 40.832031 L 44.195312 40.761719 L 44.003906 40.71875 L 43.792969 40.703125 L 43.691406 40.707031 L 43.589844 40.71875 L 43.496094 40.738281 L 43.40625 40.765625 L 43.320312 40.800781 L 43.238281 40.84375 L 43.160156 40.890625 L 43.089844 40.949219 L 43.019531 41.015625 L 42.957031 41.089844 L 42.898438 41.167969 L 42.847656 41.253906 L 42.804688 41.34375 L 42.765625 41.4375 L 42.730469 41.539062 L 42.703125 41.640625 L 42.683594 41.75 L 42.667969 41.863281 L 42.65625 41.984375 L 42.65625 42.105469 L 41.667969 42.105469 L 41.671875 41.914062 L 41.691406 41.726562 L 41.71875 41.546875 L 41.761719 41.375 L 41.816406 41.210938 L 41.878906 41.050781 L 41.957031 40.902344 L 42.046875 40.757812 L 42.148438 40.621094 L 42.261719 40.488281 L 42.386719 40.367188 L 42.515625 40.257812 L 42.652344 40.164062 L 42.796875 40.078125 L 42.945312 40.007812 L 43.101562 39.953125 L 43.265625 39.90625 L 43.433594 39.875 L 43.609375 39.855469 L 43.792969 39.847656 L 43.984375 39.855469 L 44.164062 39.875 L 44.339844 39.902344 L 44.503906 39.945312 L 44.660156 40 L 44.808594 40.066406 L 44.953125 40.144531 L 45.085938 40.238281 L 45.210938 40.339844 L 45.328125 40.457031 L 45.433594 40.582031 L 45.53125 40.714844 L 45.617188 40.863281 L 45.691406 41.015625 L 45.753906 41.183594 L 45.804688 41.359375 L 45.84375 41.542969 L 45.871094 41.738281 L 45.890625 41.945312 L 45.894531 42.164062 L 45.890625 42.273438 L 45.882812 42.386719 L 45.867188 42.496094 L 45.847656 42.605469 L 45.820312 42.710938 L 45.789062 42.816406 L 45.75 42.921875 L 45.703125 43.023438 L 45.652344 43.125 L 45.597656 43.222656 L 45.535156 43.320312 L 45.472656 43.410156 L 45.40625 43.492188 L 45.335938 43.574219 L 45.261719 43.648438 L 45.183594 43.71875 L 45.101562 43.78125 L 45.015625 43.839844 L 44.925781 43.894531 L 44.832031 43.941406 L 45.054688 44.039062 L 45.25 44.15625 L 45.421875 44.292969 L 45.574219 44.453125 L 45.699219 44.632812 L 45.804688 44.835938 L 45.886719 45.058594 L 45.945312 45.304688 L 45.976562 45.570312 L 45.988281 45.855469 L 45.984375 46.070312 L 45.964844 46.277344 L 45.933594 46.472656 L 45.890625 46.664062 L 45.835938 46.839844 L 45.769531 47.011719 L 45.691406 47.171875 L 45.597656 47.324219 L 45.496094 47.46875 L 45.378906 47.605469 L 45.253906 47.726562 L 45.121094 47.835938 L 44.980469 47.933594 L 44.832031 48.015625 L 44.675781 48.089844 L 44.515625 48.144531 L 44.34375 48.191406 L 44.167969 48.222656 L 43.980469 48.242188 L 43.789062 48.25 L 43.597656 48.242188 L 43.414062 48.226562 L 43.238281 48.195312 L 43.070312 48.152344 L 42.910156 48.097656 L 42.757812 48.027344 L 42.609375 47.949219 L 42.472656 47.859375 L 42.339844 47.753906 L 42.214844 47.636719 L 42.101562 47.507812 L 42.003906 47.375 L 41.914062 47.230469 L 41.835938 47.074219 L 41.769531 46.914062 L 41.714844 46.746094 L 41.675781 46.566406 L 41.644531 46.378906 L 41.628906 46.183594 L 41.621094 45.980469 L 42.613281 45.980469 L 42.617188 46.109375 L 42.628906 46.230469 L 42.644531 46.347656 L 42.664062 46.460938 L 42.695312 46.566406 L 42.726562 46.667969 L 42.769531 46.761719 L 42.816406 46.855469 L 42.871094 46.941406 L 42.929688 47.019531 L 42.996094 47.09375 L 43.066406 47.15625 L 43.140625 47.214844 L 43.21875 47.265625 L 43.300781 47.304688 L 43.390625 47.339844 L 43.484375 47.367188 L 43.582031 47.386719 L 43.683594 47.398438 L 43.789062 47.402344 L 43.898438 47.398438 L 44.003906 47.386719 L 44.101562 47.367188 L 44.195312 47.339844 L 44.289062 47.308594 L 44.371094 47.265625 L 44.453125 47.21875 L 44.53125 47.160156 L 44.601562 47.097656 L 44.671875 47.023438 L 44.734375 46.945312 L 44.789062 46.859375 L 44.839844 46.765625 L 44.882812 46.660156 L 44.917969 46.550781 L 44.949219 46.433594 L 44.972656 46.304688 L 44.988281 46.171875 L 45 46.03125 L 45 45.878906 L 44.988281 45.597656 L 44.945312 45.34375 L 44.875 45.121094 L 44.777344 44.925781 L 44.648438 44.765625 L 44.496094 44.628906 L 44.3125 44.527344 L 44.101562 44.453125 L 43.859375 44.40625 L 43.59375 44.390625 L 42.996094 44.390625 Z M 42.996094 43.542969 "/>
<path style=" stroke:none;fill-rule:nonzero;fill:rgb(30.196078%,30.196078%,30.196078%);fill-opacity:1;" d="M 51.773438 44.648438 L 51.769531 45.003906 L 51.753906 45.335938 L 51.726562 45.652344 L 51.6875 45.949219 L 51.640625 46.230469 L 51.582031 46.492188 L 51.515625 46.734375 L 51.4375 46.960938 L 51.347656 47.167969 L 51.246094 47.355469 L 51.132812 47.527344 L 51.011719 47.679688 L 50.875 47.8125 L 50.726562 47.929688 L 50.566406 48.027344 L 50.394531 48.105469 L 50.210938 48.167969 L 50.015625 48.214844 L 49.808594 48.242188 L 49.589844 48.25 L 49.375 48.242188 L 49.171875 48.214844 L 48.980469 48.171875 L 48.800781 48.113281 L 48.632812 48.035156 L 48.476562 47.941406 L 48.328125 47.828125 L 48.191406 47.699219 L 48.070312 47.554688 L 47.957031 47.390625 L 47.851562 47.210938 L 47.761719 47.011719 L 47.679688 46.796875 L 47.605469 46.566406 L 47.546875 46.316406 L 47.496094 46.046875 L 47.453125 45.765625 L 47.421875 45.460938 L 47.402344 45.144531 L 47.394531 44.808594 L 47.394531 43.402344 L 47.398438 43.054688 L 47.414062 42.722656 L 47.441406 42.410156 L 47.476562 42.117188 L 47.527344 41.839844 L 47.582031 41.582031 L 47.652344 41.339844 L 47.730469 41.121094 L 47.820312 40.914062 L 47.921875 40.730469 L 48.035156 40.5625 L 48.160156 40.414062 L 48.292969 40.28125 L 48.441406 40.167969 L 48.601562 40.070312 L 48.773438 39.988281 L 48.957031 39.929688 L 49.152344 39.882812 L 49.359375 39.859375 L 49.578125 39.847656 L 49.792969 39.855469 L 49.996094 39.882812 L 50.191406 39.925781 L 50.371094 39.984375 L 50.539062 40.058594 L 50.699219 40.148438 L 50.84375 40.257812 L 50.976562 40.382812 L 51.101562 40.527344 L 51.210938 40.6875 L 51.3125 40.863281 L 51.40625 41.054688 L 51.488281 41.265625 L 51.558594 41.492188 L 51.621094 41.738281 L 51.671875 42 L 51.710938 42.277344 L 51.742188 42.574219 L 51.761719 42.886719 L 51.773438 43.21875 Z M 50.78125 43.230469 L 50.777344 42.976562 L 50.769531 42.738281 L 50.753906 42.511719 L 50.734375 42.300781 L 50.707031 42.101562 L 50.675781 41.917969 L 50.640625 41.75 L 50.597656 41.59375 L 50.546875 41.449219 L 50.492188 41.320312 L 50.433594 41.203125 L 50.363281 41.097656 L 50.289062 41.003906 L 50.210938 40.925781 L 50.121094 40.855469 L 50.027344 40.800781 L 49.925781 40.757812 L 49.816406 40.726562 L 49.699219 40.707031 L 49.578125 40.703125 L 49.457031 40.707031 L 49.347656 40.726562 L 49.238281 40.757812 L 49.140625 40.800781 L 49.046875 40.855469 L 48.960938 40.921875 L 48.878906 41 L 48.808594 41.089844 L 48.738281 41.195312 L 48.679688 41.308594 L 48.625 41.433594 L 48.574219 41.574219 L 48.53125 41.726562 L 48.496094 41.886719 L 48.460938 42.0625 L 48.433594 42.253906 L 48.414062 42.453125 L 48.398438 42.664062 L 48.386719 42.890625 L 48.382812 43.128906 L 48.382812 44.8125 L 48.386719 45.066406 L 48.394531 45.304688 L 48.410156 45.53125 L 48.429688 45.742188 L 48.457031 45.945312 L 48.488281 46.132812 L 48.527344 46.308594 L 48.574219 46.46875 L 48.625 46.617188 L 48.679688 46.753906 L 48.742188 46.878906 L 48.8125 46.988281 L 48.886719 47.085938 L 48.96875 47.167969 L 49.054688 47.238281 L 49.148438 47.296875 L 49.25 47.34375 L 49.355469 47.375 L 49.46875 47.394531 L 49.589844 47.402344 L 49.707031 47.394531 L 49.820312 47.378906 L 49.925781 47.347656 L 50.023438 47.304688 L 50.117188 47.25 L 50.203125 47.179688 L 50.28125 47.101562 L 50.355469 47.007812 L 50.421875 46.90625 L 50.480469 46.789062 L 50.535156 46.660156 L 50.585938 46.519531 L 50.628906 46.363281 L 50.667969 46.195312 L 50.699219 46.015625 L 50.726562 45.824219 L 50.75 45.617188 L 50.765625 45.398438 L 50.773438 45.164062 L 50.78125 44.917969 Z M 50.78125 43.230469 "/>
<path style=" stroke:none;fill-rule:nonzero;fill:rgb(30.196078%,30.196078%,30.196078%);fill-opacity:1;" d="M 96.128906 350.339844 L 93.367188 350.339844 L 92.734375 352.476562 L 91.679688 352.476562 L 94.3125 344.300781 L 95.191406 344.300781 L 97.832031 352.476562 L 96.777344 352.476562 Z M 93.636719 349.453125 L 95.867188 349.453125 L 94.75 345.738281 Z M 93.636719 349.453125 "/>
<path style=" stroke:none;fill-rule:nonzero;fill:rgb(30.196078%,30.196078%,30.196078%);fill-opacity:1;" d="M 160.472656 350.339844 L 157.707031 350.339844 L 157.074219 352.476562 L 156.019531 352.476562 L 158.652344 344.300781 L 159.535156 344.300781 L 162.171875 352.476562 L 161.117188 352.476562 Z M 157.976562 349.453125 L 160.207031 349.453125 L 159.089844 345.738281 Z M 157.976562 349.453125 "/>
<path style=" stroke:none;fill-rule:nonzero;fill:rgb(30.196078%,30.196078%,30.196078%);fill-opacity:1;" d="M 164.984375 349.425781 L 162.667969 349.425781 L 162.667969 348.578125 L 164.984375 348.578125 Z M 164.984375 349.425781 "/>
<path style=" stroke:none;fill-rule:nonzero;fill:rgb(30.196078%,30.196078%,30.196078%);fill-opacity:1;" d="M 224.027344 352.476562 L 224.027344 344.300781 L 226.359375 344.300781 L 226.578125 344.304688 L 226.785156 344.320312 L 226.980469 344.347656 L 227.164062 344.386719 L 227.335938 344.433594 L 227.5 344.496094 L 227.652344 344.566406 L 227.792969 344.648438 L 227.921875 344.742188 L 228.039062 344.84375 L 228.144531 344.957031 L 228.242188 345.082031 L 228.328125 345.21875 L 228.402344 345.367188 L 228.464844 345.523438 L 228.515625 345.695312 L 228.554688 345.875 L 228.582031 346.0625 L 228.597656 346.265625 L 228.605469 346.476562 L 228.601562 346.589844 L 228.59375 346.703125 L 228.578125 346.808594 L 228.558594 346.914062 L 228.535156 347.015625 L 228.503906 347.117188 L 228.464844 347.214844 L 228.421875 347.308594 L 228.375 347.398438 L 228.320312 347.488281 L 228.257812 347.574219 L 228.195312 347.65625 L 228.128906 347.734375 L 228.058594 347.808594 L 227.980469 347.878906 L 227.902344 347.945312 L 227.820312 348.003906 L 227.730469 348.0625 L 227.640625 348.117188 L 227.542969 348.167969 L 227.652344 348.207031 L 227.757812 348.25 L 227.859375 348.300781 L 227.957031 348.359375 L 228.046875 348.425781 L 228.132812 348.496094 L 228.214844 348.578125 L 228.292969 348.664062 L 228.363281 348.757812 L 228.429688 348.859375 L 228.492188 348.964844 L 228.550781 349.078125 L 228.601562 349.191406 L 228.644531 349.3125 L 228.679688 349.433594 L 228.710938 349.5625 L 228.734375 349.695312 L 228.75 349.832031 L 228.757812 349.972656 L 228.761719 350.117188 L 228.757812 350.332031 L 228.738281 350.539062 L 228.707031 350.734375 L 228.664062 350.921875 L 228.609375 351.097656 L 228.542969 351.269531 L 228.464844 351.425781 L 228.375 351.574219 L 228.269531 351.714844 L 228.15625 351.847656 L 228.03125 351.964844 L 227.894531 352.074219 L 227.75 352.167969 L 227.59375 352.25 L 227.425781 352.316406 L 227.25 352.375 L 227.0625 352.417969 L 226.863281 352.449219 L 226.65625 352.46875 L 226.4375 352.476562 Z M 225.054688 348.652344 L 225.054688 351.59375 L 226.460938 351.59375 L 226.574219 351.589844 L 226.683594 351.578125 L 226.789062 351.558594 L 226.890625 351.53125 L 226.984375 351.5 L 227.074219 351.457031 L 227.160156 351.40625 L 227.238281 351.347656 L 227.316406 351.285156 L 227.386719 351.210938 L 227.453125 351.132812 L 227.511719 351.042969 L 227.5625 350.953125 L 227.605469 350.851562 L 227.644531 350.746094 L 227.675781 350.636719 L 227.699219 350.519531 L 227.714844 350.394531 L 227.726562 350.265625 L 227.730469 350.128906 L 227.714844 349.847656 L 227.679688 349.597656 L 227.617188 349.375 L 227.53125 349.183594 L 227.417969 349.019531 L 227.28125 348.886719 L 227.117188 348.785156 L 226.929688 348.710938 L 226.71875 348.664062 L 226.484375 348.652344 Z M 225.054688 347.785156 L 226.375 347.785156 L 226.480469 347.78125 L 226.582031 347.773438 L 226.675781 347.753906 L 226.769531 347.730469 L 226.859375 347.695312 L 226.941406 347.65625 L 227.019531 347.609375 L 227.097656 347.554688 L 227.167969 347.496094 L 227.234375 347.425781 L 227.296875 347.351562 L 227.355469 347.273438 L 227.402344 347.191406 L 227.445312 347.101562 L 227.484375 347.007812 L 227.511719 346.910156 L 227.535156 346.808594 L 227.554688 346.699219 L 227.5625 346.589844 L 227.566406 346.472656 L 227.5625 346.339844 L 227.554688 346.21875 L 227.539062 346.101562 L 227.519531 345.992188 L 227.492188 345.890625 L 227.460938 345.796875 L 227.421875 345.710938 L 227.375 345.632812 L 227.324219 345.558594 L 227.269531 345.496094 L 227.207031 345.4375 L 227.136719 345.382812 L 227.0625 345.335938 L 226.980469 345.296875 L 226.894531 345.265625 L 226.796875 345.234375 L 226.699219 345.214844 L 226.589844 345.199219 L 226.476562 345.191406 L 226.359375 345.1875 L 225.054688 345.1875 Z M 225.054688 347.785156 "/>
<path style=" stroke:none;fill-rule:nonzero;fill:rgb(30.196078%,30.196078%,30.196078%);fill-opacity:1;" d="M 288.371094 352.476562 L 288.371094 344.300781 L 290.699219 344.300781 L 290.917969 344.304688 L 291.125 344.320312 L 291.320312 344.347656 L 291.503906 344.386719 L 291.679688 344.433594 L 291.839844 344.496094 L 291.992188 344.566406 L 292.132812 344.648438 L 292.261719 344.742188 L 292.378906 344.84375 L 292.488281 344.957031 L 292.582031 345.082031 L 292.667969 345.21875 L 292.742188 345.367188 L 292.804688 345.523438 L 292.855469 345.695312 L 292.894531 345.875 L 292.921875 346.0625 L 292.941406 346.265625 L 292.945312 346.476562 L 292.941406 346.589844 L 292.933594 346.703125 L 292.921875 346.808594 L 292.898438 346.914062 L 292.875 347.015625 L 292.84375 347.117188 L 292.804688 347.214844 L 292.761719 347.308594 L 292.714844 347.398438 L 292.660156 347.488281 L 292.601562 347.574219 L 292.535156 347.65625 L 292.46875 347.734375 L 292.398438 347.808594 L 292.324219 347.878906 L 292.242188 347.945312 L 292.160156 348.003906 L 292.070312 348.0625 L 291.980469 348.117188 L 291.882812 348.167969 L 291.996094 348.207031 L 292.101562 348.25 L 292.199219 348.300781 L 292.296875 348.359375 L 292.386719 348.425781 L 292.472656 348.496094 L 292.554688 348.578125 L 292.632812 348.664062 L 292.703125 348.757812 L 292.773438 348.859375 L 292.835938 348.964844 L 292.890625 349.078125 L 292.941406 349.191406 L 292.984375 349.3125 L 293.019531 349.433594 L 293.050781 349.5625 L 293.074219 349.695312 L 293.089844 349.832031 L 293.101562 349.972656 L 293.101562 350.117188 L 293.097656 350.332031 L 293.078125 350.539062 L 293.046875 350.734375 L 293.007812 350.921875 L 292.953125 351.097656 L 292.886719 351.269531 L 292.804688 351.425781 L 292.714844 351.574219 L 292.613281 351.714844 L 292.496094 351.847656 L 292.371094 351.964844 L 292.234375 352.074219 L 292.089844 352.167969 L 291.933594 352.25 L 291.765625 352.316406 L 291.589844 352.375 L 291.402344 352.417969 L 291.203125 352.449219 L 290.996094 352.46875 L 290.777344 352.476562 Z M 289.398438 348.652344 L 289.398438 351.59375 L 290.800781 351.59375 L 290.914062 351.589844 L 291.023438 351.578125 L 291.128906 351.558594 L 291.230469 351.53125 L 291.324219 351.5 L 291.414062 351.457031 L 291.5 351.40625 L 291.582031 351.347656 L 291.65625 351.285156 L 291.726562 351.210938 L 291.792969 351.132812 L 291.851562 351.042969 L 291.902344 350.953125 L 291.945312 350.851562 L 291.984375 350.746094 L 292.015625 350.636719 L 292.039062 350.519531 L 292.054688 350.394531 L 292.066406 350.265625 L 292.070312 350.128906 L 292.058594 349.847656 L 292.019531 349.597656 L 291.957031 349.375 L 291.871094 349.183594 L 291.757812 349.019531 L 291.621094 348.886719 L 291.460938 348.785156 L 291.273438 348.710938 L 291.058594 348.664062 L 290.824219 348.652344 Z M 289.398438 347.785156 L 290.714844 347.785156 L 290.820312 347.78125 L 290.921875 347.773438 L 291.019531 347.753906 L 291.109375 347.730469 L 291.199219 347.695312 L 291.28125 347.65625 L 291.363281 347.609375 L 291.4375 347.554688 L 291.507812 347.496094 L 291.574219 347.425781 L 291.640625 347.351562 L 291.695312 347.273438 L 291.746094 347.191406 L 291.789062 347.101562 L 291.824219 347.007812 L 291.855469 346.910156 L 291.878906 346.808594 L 291.894531 346.699219 L 291.902344 346.589844 L 291.90625 346.472656 L 291.902344 346.339844 L 291.894531 346.21875 L 291.878906 346.101562 L 291.859375 345.992188 L 291.832031 345.890625 L 291.800781 345.796875 L 291.761719 345.710938 L 291.714844 345.632812 L 291.667969 345.558594 L 291.609375 345.496094 L 291.546875 345.4375 L 291.476562 345.382812 L 291.402344 345.335938 L 291.320312 345.296875 L 291.234375 345.265625 L 291.140625 345.234375 L 291.039062 345.214844 L 290.933594 345.199219 L 290.820312 345.191406 L 290.699219 345.1875 L 289.398438 345.1875 Z M 289.398438 347.785156 "/>
<path style=" stroke:none;fill-rule:nonzero;fill:rgb(30.196078%,30.196078%,30.196078%);fill-opacity:1;" d="M 296.34375 349.425781 L 294.023438 349.425781 L 294.023438 348.578125 L 296.34375 348.578125 Z M 296.34375 349.425781 "/>
<path style=" stroke:none;fill-rule:nonzero;fill:rgb(30.196078%,30.196078%,30.196078%);fill-opacity:1;" d="M 352.707031 352.476562 L 352.707031 344.300781 L 355.039062 344.300781 L 355.253906 344.304688 L 355.460938 344.320312 L 355.65625 344.347656 L 355.84375 344.386719 L 356.015625 344.433594 L 356.179688 344.496094 L 356.328125 344.566406 L 356.46875 344.648438 L 356.597656 344.742188 L 356.714844 344.84375 L 356.824219 344.957031 L 356.921875 345.082031 L 357.007812 345.21875 L 357.078125 345.367188 L 357.140625 345.523438 L 357.191406 345.695312 L 357.234375 345.875 L 357.261719 346.0625 L 357.277344 346.265625 L 357.285156 346.476562 L 357.28125 346.589844 L 357.273438 346.703125 L 357.257812 346.808594 L 357.238281 346.914062 L 357.210938 347.015625 L 357.179688 347.117188 L 357.144531 347.214844 L 357.101562 347.308594 L 357.050781 347.398438 L 356.996094 347.488281 L 356.9375 347.574219 L 356.875 347.65625 L 356.808594 347.734375 L 356.734375 347.808594 L 356.660156 347.878906 L 356.582031 347.945312 L 356.410156 348.0625 L 356.316406 348.117188 L 356.222656 348.167969 L 356.332031 348.207031 L 356.4375 348.25 L 356.539062 348.300781 L 356.632812 348.359375 L 356.726562 348.425781 L 356.8125 348.496094 L 356.894531 348.578125 L 356.96875 348.664062 L 357.042969 348.757812 L 357.109375 348.859375 L 357.171875 348.964844 L 357.230469 349.078125 L 357.277344 349.191406 L 357.320312 349.3125 L 357.359375 349.433594 L 357.386719 349.5625 L 357.410156 349.695312 L 357.429688 349.832031 L 357.4375 349.972656 L 357.441406 350.117188 L 357.433594 350.332031 L 357.417969 350.539062 L 357.386719 350.734375 L 357.34375 350.921875 L 357.289062 351.097656 L 357.222656 351.269531 L 357.144531 351.425781 L 357.054688 351.574219 L 356.949219 351.714844 L 356.835938 351.847656 L 356.710938 351.964844 L 356.574219 352.074219 L 356.425781 352.167969 L 356.269531 352.25 L 356.105469 352.316406 L 355.925781 352.375 L 355.742188 352.417969 L 355.542969 352.449219 L 355.335938 352.46875 L 355.117188 352.476562 Z M 353.734375 348.652344 L 353.734375 351.59375 L 355.140625 351.59375 L 355.253906 351.589844 L 355.363281 351.578125 L 355.46875 351.558594 L 355.566406 351.53125 L 355.664062 351.5 L 355.753906 351.457031 L 355.839844 351.40625 L 355.917969 351.347656 L 355.996094 351.285156 L 356.066406 351.210938 L 356.128906 351.132812 L 356.1875 351.042969 L 356.238281 350.953125 L 356.285156 350.851562 L 356.320312 350.746094 L 356.351562 350.636719 L 356.378906 350.519531 L 356.394531 350.394531 L 356.40625 350.265625 L 356.40625 350.128906 L 356.394531 349.847656 L 356.359375 349.597656 L 356.296875 349.375 L 356.207031 349.183594 L 356.097656 349.019531 L 355.960938 348.886719 L 355.796875 348.785156 L 355.609375 348.710938 L 355.398438 348.664062 L 355.160156 348.652344 Z M 353.734375 347.785156 L 355.054688 347.785156 L 355.160156 347.78125 L 355.257812 347.773438 L 355.355469 347.753906 L 355.449219 347.730469 L 355.535156 347.695312 L 355.621094 347.65625 L 355.699219 347.609375 L 355.773438 347.554688 L 355.847656 347.496094 L 355.914062 347.425781 L 355.976562 347.351562 L 356.03125 347.273438 L 356.082031 347.191406 L 356.125 347.101562 L 356.164062 347.007812 L 356.191406 346.910156 L 356.214844 346.808594 L 356.230469 346.699219 L 356.242188 346.589844 L 356.246094 346.472656 L 356.242188 346.339844 L 356.234375 346.21875 L 356.21875 346.101562 L 356.199219 345.992188 L 356.171875 345.890625 L 356.136719 345.796875 L 356.097656 345.710938 L 356.054688 345.632812 L 356.003906 345.558594 L 355.949219 345.496094 L 355.882812 345.4375 L 355.816406 345.382812 L 355.742188 345.335938 L 355.660156 345.296875 L 355.570312 345.265625 L 355.476562 345.234375 L 355.375 345.214844 L 355.269531 345.199219 L 355.15625 345.191406 L 355.039062 345.1875 L 353.734375 345.1875 Z M 353.734375 347.785156 "/>
<path style=" stroke:none;fill-rule:nonzero;fill:rgb(30.196078%,30.196078%,30.196078%);fill-opacity:1;" d="M 361.445312 348.089844 L 363.292969 348.089844 L 363.292969 349.074219 L 361.445312 349.074219 L 361.445312 351.65625 L 360.445312 351.65625 L 360.445312 349.074219 L 358.582031 349.074219 L 358.582031 348.089844 L 360.445312 348.089844 L 360.445312 345.703125 L 361.445312 345.703125 Z M 361.445312 348.089844 "/>
<path style=" stroke:none;fill-rule:nonzero;fill:rgb(30.196078%,30.196078%,30.196078%);fill-opacity:1;" d="M 426.332031 349.882812 L 426.3125 350.136719 L 426.28125 350.382812 L 426.238281 350.613281 L 426.183594 350.832031 L 426.113281 351.039062 L 426.035156 351.234375 L 425.941406 351.417969 L 425.835938 351.589844 L 425.71875 351.746094 L 425.589844 351.890625 L 425.453125 352.023438 L 425.300781 352.140625 L 425.140625 352.246094 L 424.96875 352.335938 L 424.785156 352.414062 L 424.589844 352.476562 L 424.382812 352.523438 L 424.167969 352.558594 L 423.9375 352.582031 L 423.699219 352.585938 L 423.457031 352.578125 L 423.226562 352.550781 L 423.007812 352.503906 L 422.796875 352.4375 L 422.597656 352.355469 L 422.40625 352.25 L 422.226562 352.128906 L 422.054688 351.992188 L 421.894531 351.832031 L 421.746094 351.65625 L 421.609375 351.460938 L 421.484375 351.253906 L 421.375 351.03125 L 421.28125 350.800781 L 421.203125 350.550781 L 421.136719 350.292969 L 421.085938 350.019531 L 421.050781 349.730469 L 421.027344 349.429688 L 421.019531 349.117188 L 421.019531 347.636719 L 421.027344 347.324219 L 421.050781 347.023438 L 421.085938 346.738281 L 421.140625 346.464844 L 421.207031 346.207031 L 421.289062 345.960938 L 421.382812 345.730469 L 421.496094 345.511719 L 421.621094 345.304688 L 421.761719 345.113281 L 421.917969 344.9375 L 422.082031 344.78125 L 422.257812 344.640625 L 422.445312 344.519531 L 422.644531 344.417969 L 422.851562 344.335938 L 423.070312 344.269531 L 423.300781 344.222656 L 423.542969 344.195312 L 423.792969 344.1875 L 424.027344 344.195312 L 424.246094 344.214844 L 424.457031 344.25 L 424.65625 344.300781 L 424.84375 344.367188 L 425.023438 344.445312 L 425.1875 344.535156 L 425.34375 344.644531 L 425.492188 344.765625 L 425.625 344.898438 L 425.75 345.046875 L 425.863281 345.207031 L 425.960938 345.378906 L 426.050781 345.5625 L 426.128906 345.761719 L 426.191406 345.96875 L 426.246094 346.191406 L 426.285156 346.425781 L 426.316406 346.667969 L 426.332031 346.925781 L 425.292969 346.925781 L 425.277344 346.734375 L 425.253906 346.550781 L 425.226562 346.378906 L 425.195312 346.21875 L 425.15625 346.070312 L 425.109375 345.933594 L 425.058594 345.808594 L 425.003906 345.695312 L 424.941406 345.59375 L 424.871094 345.5 L 424.796875 345.417969 L 424.714844 345.347656 L 424.628906 345.285156 L 424.53125 345.226562 L 424.425781 345.179688 L 424.316406 345.140625 L 424.195312 345.113281 L 424.070312 345.089844 L 423.9375 345.078125 L 423.792969 345.074219 L 423.632812 345.082031 L 423.476562 345.101562 L 423.328125 345.132812 L 423.1875 345.179688 L 423.054688 345.238281 L 422.929688 345.3125 L 422.8125 345.394531 L 422.703125 345.496094 L 422.601562 345.605469 L 422.507812 345.730469 L 422.421875 345.867188 L 422.347656 346.015625 L 422.28125 346.175781 L 422.222656 346.351562 L 422.171875 346.535156 L 422.132812 346.734375 L 422.101562 346.941406 L 422.078125 347.164062 L 422.0625 347.398438 L 422.058594 347.644531 L 422.058594 349.144531 L 422.0625 349.386719 L 422.078125 349.617188 L 422.097656 349.835938 L 422.125 350.046875 L 422.164062 350.242188 L 422.210938 350.425781 L 422.261719 350.597656 L 422.324219 350.761719 L 422.394531 350.910156 L 422.476562 351.050781 L 422.5625 351.175781 L 422.660156 351.289062 L 422.761719 351.386719 L 422.875 351.472656 L 422.992188 351.546875 L 423.117188 351.605469 L 423.25 351.652344 L 423.394531 351.683594 L 423.542969 351.703125 L 423.699219 351.710938 L 423.855469 351.707031 L 424.003906 351.695312 L 424.140625 351.675781 L 424.269531 351.648438 L 424.390625 351.613281 L 424.5 351.566406 L 424.601562 351.515625 L 424.695312 351.457031 L 424.78125 351.386719 L 424.855469 351.3125 L 424.925781 351.226562 L 424.988281 351.128906 L 425.042969 351.015625 L 425.097656 350.890625 L 425.140625 350.753906 L 425.183594 350.605469 L 425.21875 350.445312 L 425.25 350.269531 L 425.273438 350.082031 L 425.292969 349.882812 Z M 426.332031 349.882812 "/>
<path style=" stroke:none;fill-rule:nonzero;fill:rgb(30.196078%,30.196078%,30.196078%);fill-opacity:1;" d="M 490.671875 349.882812 L 490.652344 350.136719 L 490.621094 350.382812 L 490.578125 350.613281 L 490.523438 350.832031 L 490.453125 351.039062 L 490.375 351.234375 L 490.28125 351.417969 L 490.175781 351.589844 L 490.0625 351.746094 L 489.933594 351.890625 L 489.792969 352.023438 L 489.644531 352.140625 L 489.480469 352.246094 L 489.308594 352.335938 L 489.125 352.414062 L 488.929688 352.476562 L 488.722656 352.523438 L 488.507812 352.558594 L 488.277344 352.582031 L 488.039062 352.585938 L 487.800781 352.578125 L 487.566406 352.550781 L 487.347656 352.503906 L 487.136719 352.4375 L 486.9375 352.355469 L 486.746094 352.25 L 486.566406 352.128906 L 486.394531 351.992188 L 486.234375 351.832031 L 486.085938 351.65625 L 485.949219 351.460938 L 485.824219 351.253906 L 485.714844 351.03125 L 485.621094 350.800781 L 485.542969 350.550781 L 485.476562 350.292969 L 485.425781 350.019531 L 485.390625 349.730469 L 485.367188 349.429688 L 485.363281 349.117188 L 485.363281 347.636719 L 485.367188 347.324219 L 485.390625 347.023438 L 485.429688 346.738281 L 485.480469 346.464844 L 485.546875 346.207031 L 485.628906 345.960938 L 485.726562 345.730469 L 485.835938 345.511719 L 485.960938 345.304688 L 486.101562 345.113281 L 486.257812 344.9375 L 486.421875 344.78125 L 486.597656 344.640625 L 486.785156 344.519531 L 486.984375 344.417969 L 487.191406 344.335938 L 487.414062 344.269531 L 487.644531 344.222656 L 487.882812 344.195312 L 488.136719 344.1875 L 488.367188 344.195312 L 488.585938 344.214844 L 488.796875 344.25 L 488.996094 344.300781 L 489.183594 344.367188 L 489.363281 344.445312 L 489.53125 344.535156 L 489.6875 344.644531 L 489.832031 344.765625 L 489.964844 344.898438 L 490.089844 345.046875 L 490.203125 345.207031 L 490.304688 345.378906 L 490.390625 345.5625 L 490.46875 345.761719 L 490.535156 345.96875 L 490.585938 346.191406 L 490.628906 346.425781 L 490.65625 346.667969 L 490.671875 346.925781 L 489.632812 346.925781 L 489.617188 346.734375 L 489.597656 346.550781 L 489.570312 346.378906 L 489.535156 346.21875 L 489.496094 346.070312 L 489.449219 345.933594 L 489.398438 345.808594 L 489.34375 345.695312 L 489.28125 345.59375 L 489.214844 345.5 L 489.140625 345.417969 L 489.058594 345.347656 L 488.96875 345.285156 L 488.871094 345.226562 L 488.765625 345.179688 L 488.65625 345.140625 L 488.535156 345.113281 L 488.410156 345.089844 L 488.277344 345.078125 L 488.136719 345.074219 L 487.972656 345.082031 L 487.816406 345.101562 L 487.667969 345.132812 L 487.527344 345.179688 L 487.394531 345.238281 L 487.269531 345.3125 L 487.152344 345.394531 L 487.042969 345.496094 L 486.941406 345.605469 L 486.847656 345.730469 L 486.765625 345.867188 L 486.6875 346.015625 L 486.621094 346.175781 L 486.5625 346.351562 L 486.511719 346.535156 L 486.472656 346.734375 L 486.441406 346.941406 L 486.417969 347.164062 L 486.40625 347.398438 L 486.398438 347.644531 L 486.398438 349.144531 L 486.40625 349.386719 L 486.417969 349.617188 L 486.4375 349.835938 L 486.464844 350.046875 L 486.503906 350.242188 L 486.550781 350.425781 L 486.605469 350.597656 L 486.667969 350.761719 L 486.738281 350.910156 L 486.816406 351.050781 L 486.902344 351.175781 L 487 351.289062 L 487.101562 351.386719 L 487.214844 351.472656 L 487.332031 351.546875 L 487.457031 351.605469 L 487.59375 351.652344 L 487.734375 351.683594 L 487.882812 351.703125 L 488.039062 351.710938 L 488.195312 351.707031 L 488.34375 351.695312 L 488.480469 351.675781 L 488.609375 351.648438 L 488.730469 351.613281 L 488.839844 351.566406 L 488.945312 351.515625 L 489.039062 351.457031 L 489.121094 351.386719 L 489.195312 351.3125 L 489.265625 351.226562 L 489.328125 351.128906 L 489.382812 351.015625 L 489.4375 350.890625 L 489.484375 350.753906 L 489.523438 350.605469 L 489.558594 350.445312 L 489.589844 350.269531 L 489.613281 350.082031 L 489.632812 349.882812 Z M 490.671875 349.882812 "/>
<path style=" stroke:none;fill-rule:nonzero;fill:rgb(30.196078%,30.196078%,30.196078%);fill-opacity:1;" d="M 493.765625 349.425781 L 491.449219 349.425781 L 491.449219 348.578125 L 493.765625 348.578125 Z M 493.765625 349.425781 "/>
<path style=" stroke:none;fill-rule:nonzero;fill:rgb(30.196078%,30.196078%,30.196078%);fill-opacity:1;" d="M 555.011719 349.882812 L 554.992188 350.136719 L 554.960938 350.382812 L 554.917969 350.613281 L 554.859375 350.832031 L 554.792969 351.039062 L 554.710938 351.234375 L 554.621094 351.417969 L 554.515625 351.589844 L 554.398438 351.746094 L 554.269531 351.890625 L 554.132812 352.023438 L 553.980469 352.140625 L 553.820312 352.246094 L 553.648438 352.335938 L 553.464844 352.414062 L 553.269531 352.476562 L 553.0625 352.523438 L 552.84375 352.558594 L 552.617188 352.582031 L 552.378906 352.585938 L 552.136719 352.578125 L 551.90625 352.550781 L 551.683594 352.503906 L 551.476562 352.4375 L 551.273438 352.355469 L 551.085938 352.25 L 550.902344 352.128906 L 550.734375 351.992188 L 550.574219 351.832031 L 550.421875 351.65625 L 550.285156 351.460938 L 550.164062 351.253906 L 550.054688 351.03125 L 549.960938 350.800781 L 549.878906 350.550781 L 549.816406 350.292969 L 549.765625 350.019531 L 549.726562 349.730469 L 549.707031 349.429688 L 549.699219 349.117188 L 549.699219 347.636719 L 549.707031 347.324219 L 549.730469 347.023438 L 549.765625 346.738281 L 549.816406 346.464844 L 549.882812 346.207031 L 549.964844 345.960938 L 550.0625 345.730469 L 550.171875 345.511719 L 550.300781 345.304688 L 550.441406 345.113281 L 550.59375 344.9375 L 550.761719 344.78125 L 550.9375 344.640625 L 551.125 344.519531 L 551.320312 344.417969 L 551.53125 344.335938 L 551.75 344.269531 L 551.980469 344.222656 L 552.222656 344.195312 L 552.472656 344.1875 L 552.703125 344.195312 L 552.925781 344.214844 L 553.136719 344.25 L 553.335938 344.300781 L 553.523438 344.367188 L 553.699219 344.445312 L 553.867188 344.535156 L 554.023438 344.644531 L 554.167969 344.765625 L 554.304688 344.898438 L 554.429688 345.046875 L 554.539062 345.207031 L 554.640625 345.378906 L 554.730469 345.5625 L 554.804688 345.761719 L 554.871094 345.96875 L 554.925781 346.191406 L 554.964844 346.425781 L 554.996094 346.667969 L 555.011719 346.925781 L 553.972656 346.925781 L 553.957031 346.734375 L 553.933594 346.550781 L 553.90625 346.378906 L 553.871094 346.21875 L 553.832031 346.070312 L 553.789062 345.933594 L 553.738281 345.808594 L 553.679688 345.695312 L 553.621094 345.59375 L 553.550781 345.5 L 553.476562 345.417969 L 553.394531 345.347656 L 553.304688 345.285156 L 553.210938 345.226562 L 553.105469 345.179688 L 552.992188 345.140625 L 552.875 345.113281 L 552.75 345.089844 L 552.613281 345.078125 L 552.472656 345.074219 L 552.308594 345.082031 L 552.152344 345.101562 L 552.007812 345.132812 L 551.867188 345.179688 L 551.734375 345.238281 L 551.609375 345.3125 L 551.492188 345.394531 L 551.382812 345.496094 L 551.28125 345.605469 L 551.1875 345.730469 L 551.101562 345.867188 L 551.027344 346.015625 L 550.957031 346.175781 L 550.898438 346.351562 L 550.851562 346.535156 L 550.808594 346.734375 L 550.777344 346.941406 L 550.757812 347.164062 L 550.742188 347.398438 L 550.738281 347.644531 L 550.738281 349.144531 L 550.742188 349.386719 L 550.753906 349.617188 L 550.777344 349.835938 L 550.804688 350.046875 L 550.84375 350.242188 L 550.886719 350.425781 L 550.941406 350.597656 L 551.003906 350.761719 L 551.074219 350.910156 L 551.152344 351.050781 L 551.242188 351.175781 L 551.335938 351.289062 L 551.441406 351.386719 L 551.550781 351.472656 L 551.671875 351.546875 L 551.796875 351.605469 L 551.929688 351.652344 L 552.070312 351.683594 L 552.222656 351.703125 L 552.378906 351.710938 L 552.535156 351.707031 L 552.679688 351.695312 L 552.820312 351.675781 L 552.949219 351.648438 L 553.070312 351.613281 L 553.179688 351.566406 L 553.28125 351.515625 L 553.375 351.457031 L 553.460938 351.386719 L 553.535156 351.3125 L 553.601562 351.226562 L 553.664062 351.128906 L 553.722656 351.015625 L 553.773438 350.890625 L 553.820312 350.753906 L 553.863281 350.605469 L 553.898438 350.445312 L 553.929688 350.269531 L 553.953125 350.082031 L 553.972656 349.882812 Z M 555.011719 349.882812 "/>
<path style=" stroke:none;fill-rule:nonzero;fill:rgb(30.196078%,30.196078%,30.196078%);fill-opacity:1;" d="M 558.867188 348.089844 L 560.714844 348.089844 L 560.714844 349.074219 L 558.867188 349.074219 L 558.867188 351.65625 L 557.871094 351.65625 L 557.871094 349.074219 L 556.003906 349.074219 L 556.003906 348.089844 L 557.871094 348.089844 L 557.871094 345.703125 L 558.867188 345.703125 Z M 558.867188 348.089844 "/>
<path style=" stroke:none;fill-rule:nonzero;fill:rgb(30.196078%,30.196078%,30.196078%);fill-opacity:1;" d="M 615.628906 352.476562 L 615.628906 344.300781 L 617.578125 344.300781 L 617.859375 344.308594 L 618.125 344.335938 L 618.378906 344.378906 L 618.621094 344.441406 L 618.847656 344.523438 L 619.066406 344.621094 L 619.269531 344.738281 L 619.457031 344.875 L 619.636719 345.027344 L 619.800781 345.199219 L 619.953125 345.382812 L 620.085938 345.585938 L 620.203125 345.800781 L 620.308594 346.027344 L 620.394531 346.273438 L 620.464844 346.53125 L 620.523438 346.804688 L 620.5625 347.09375 L 620.585938 347.394531 L 620.59375 347.714844 L 620.59375 349.082031 L 620.585938 349.402344 L 620.5625 349.703125 L 620.519531 349.992188 L 620.464844 350.265625 L 620.390625 350.523438 L 620.304688 350.765625 L 620.199219 350.996094 L 620.078125 351.210938 L 619.941406 351.410156 L 619.789062 351.59375 L 619.621094 351.761719 L 619.441406 351.910156 L 619.242188 352.042969 L 619.03125 352.15625 L 618.804688 352.253906 L 618.566406 352.335938 L 618.3125 352.394531 L 618.042969 352.441406 L 617.757812 352.464844 L 617.460938 352.476562 Z M 616.65625 345.1875 L 616.65625 351.59375 L 617.480469 351.59375 L 617.691406 351.585938 L 617.890625 351.570312 L 618.078125 351.539062 L 618.253906 351.496094 L 618.417969 351.4375 L 618.574219 351.371094 L 618.714844 351.289062 L 618.84375 351.199219 L 618.960938 351.09375 L 619.066406 350.976562 L 619.160156 350.84375 L 619.246094 350.703125 L 619.320312 350.546875 L 619.386719 350.382812 L 619.441406 350.203125 L 619.488281 350.011719 L 619.527344 349.8125 L 619.550781 349.597656 L 619.570312 349.371094 L 619.578125 349.132812 L 619.578125 347.683594 L 619.570312 347.433594 L 619.554688 347.195312 L 619.53125 346.972656 L 619.496094 346.761719 L 619.453125 346.566406 L 619.398438 346.382812 L 619.332031 346.214844 L 619.257812 346.0625 L 619.171875 345.921875 L 619.078125 345.792969 L 618.972656 345.679688 L 618.859375 345.574219 L 618.734375 345.484375 L 618.601562 345.40625 L 618.453125 345.339844 L 618.300781 345.285156 L 618.132812 345.242188 L 617.960938 345.210938 L 617.773438 345.191406 L 617.578125 345.1875 Z M 616.65625 345.1875 "/>
<path style=" stroke:none;fill-rule:nonzero;fill:rgb(30.196078%,30.196078%,30.196078%);fill-opacity:1;" d="M 624.660156 348.089844 L 626.503906 348.089844 L 626.503906 349.074219 L 624.660156 349.074219 L 624.660156 351.65625 L 623.660156 351.65625 L 623.660156 349.074219 L 621.792969 349.074219 L 621.792969 348.089844 L 623.660156 348.089844 L 623.660156 345.703125 L 624.660156 345.703125 Z M 624.660156 348.089844 "/>
<path style=" stroke:none;fill-rule:nonzero;fill:rgb(30.196078%,30.196078%,30.196078%);fill-opacity:1;" d="M 688.597656 348.695312 L 685.707031 348.695312 L 685.707031 351.59375 L 689.074219 351.59375 L 689.074219 352.476562 L 684.679688 352.476562 L 684.679688 344.300781 L 689.019531 344.300781 L 689.019531 345.1875 L 685.707031 345.1875 L 685.707031 347.816406 L 688.597656 347.816406 Z M 688.597656 348.695312 "/>
</g>
</svg>
