<?xml version="1.0" encoding="UTF-8"?>
<svg xmlns="http://www.w3.org/2000/svg" xmlns:xlink="http://www.w3.org/1999/xlink" width="756pt" height="396pt" viewBox="0 0 756 396" version="1.1">
<defs>
<clipPath id="clip1">
  <path d="M 55.238281 280 L 726.113281 280 L 726.113281 281 L 55.238281 281 Z M 55.238281 280 "/>
</clipPath>
<clipPath id="clip2">
  <path d="M 55.238281 185 L 726.113281 185 L 726.113281 186 L 55.238281 186 Z M 55.238281 185 "/>
</clipPath>
<clipPath id="clip3">
  <path d="M 55.238281 91 L 726.113281 91 L 726.113281 92 L 55.238281 92 Z M 55.238281 91 "/>
</clipPath>
<clipPath id="clip4">
  <path d="M 55.238281 327 L 726.113281 327 L 726.113281 328 L 55.238281 328 Z M 55.238281 327 "/>
</clipPath>
<clipPath id="clip5">
  <path d="M 55.238281 232 L 726.113281 232 L 726.113281 234 L 55.238281 234 Z M 55.238281 232 "/>
</clipPath>
<clipPath id="clip6">
  <path d="M 55.238281 138 L 726.113281 138 L 726.113281 139 L 55.238281 139 Z M 55.238281 138 "/>
</clipPath>
<clipPath id="clip7">
  <path d="M 55.238281 43 L 726.113281 43 L 726.113281 45 L 55.238281 45 Z M 55.238281 43 "/>
</clipPath>
<clipPath id="clip8">
  <path d="M 94 29.886719 L 95 29.886719 L 95 341.554688 L 94 341.554688 Z M 94 29.886719 "/>
</clipPath>
<clipPath id="clip9">
  <path d="M 160 29.886719 L 161 29.886719 L 161 341.554688 L 160 341.554688 Z M 160 29.886719 "/>
</clipPath>
<clipPath id="clip10">
  <path d="M 226 29.886719 L 227 29.886719 L 227 341.554688 L 226 341.554688 Z M 226 29.886719 "/>
</clipPath>
<clipPath id="clip11">
  <path d="M 291 29.886719 L 293 29.886719 L 293 341.554688 L 291 341.554688 Z M 291 29.886719 "/>
</clipPath>
<clipPath id="clip12">
  <path d="M 357 29.886719 L 359 29.886719 L 359 341.554688 L 357 341.554688 Z M 357 29.886719 "/>
</clipPath>
<clipPath id="clip13">
  <path d="M 423 29.886719 L 424 29.886719 L 424 341.554688 L 423 341.554688 Z M 423 29.886719 "/>
</clipPath>
<clipPath id="clip14">
  <path d="M 489 29.886719 L 490 29.886719 L 490 341.554688 L 489 341.554688 Z M 489 29.886719 "/>
</clipPath>
<clipPath id="clip15">
  <path d="M 554 29.886719 L 556 29.886719 L 556 341.554688 L 554 341.554688 Z M 554 29.886719 "/>
</clipPath>
<clipPath id="clip16">
  <path d="M 620 29.886719 L 622 29.886719 L 622 341.554688 L 620 341.554688 Z M 620 29.886719 "/>
</clipPath>
<clipPath id="clip17">
  <path d="M 686 29.886719 L 687 29.886719 L 687 341.554688 L 686 341.554688 Z M 686 29.886719 "/>
</clipPath>
</defs>
<g id="surface104">
<rect x="0" y="0" width="756" height="396" style="fill:rgb(100%,100%,100%);fill-opacity:1;stroke:none;"/>
<g clip-path="url(#clip1)" clip-rule="nonzero">
<path style="fill:none;stroke-width:0.320094;stroke-linecap:butt;stroke-linejoin:round;stroke:rgb(80%,80%,80%);stroke-opacity:1;stroke-miterlimit:10;" d="M 55.238281 280.167969 L 726.113281 280.167969 "/>
</g>
<g clip-path="url(#clip2)" clip-rule="nonzero">
<path style="fill:none;stroke-width:0.320094;stroke-linecap:butt;stroke-linejoin:round;stroke:rgb(80%,80%,80%);stroke-opacity:1;stroke-miterlimit:10;" d="M 55.238281 185.722656 L 726.113281 185.722656 "/>
</g>
<g clip-path="url(#clip3)" clip-rule="nonzero">
<path style="fill:none;stroke-width:0.320094;stroke-linecap:butt;stroke-linejoin:round;stroke:rgb(80%,80%,80%);stroke-opacity:1;stroke-miterlimit:10;" d="M 55.238281 91.277344 L 726.113281 91.277344 "/>
</g>
<g clip-path="url(#clip4)" clip-rule="nonzero">
<path style="fill:none;stroke-width:0.426791;stroke-linecap:butt;stroke-linejoin:round;stroke:rgb(80%,80%,80%);stroke-opacity:1;stroke-miterlimit:10;" d="M 55.238281 327.386719 L 726.113281 327.386719 "/>
</g>
<g clip-path="url(#clip5)" clip-rule="nonzero">
<path style="fill:none;stroke-width:0.426791;stroke-linecap:butt;stroke-linejoin:round;stroke:rgb(80%,80%,80%);stroke-opacity:1;stroke-miterlimit:10;" d="M 55.238281 232.945312 L 726.113281 232.945312 "/>
</g>
<g clip-path="url(#clip6)" clip-rule="nonzero">
<path style="fill:none;stroke-width:0.426791;stroke-linecap:butt;stroke-linejoin:round;stroke:rgb(80%,80%,80%);stroke-opacity:1;stroke-miterlimit:10;" d="M 55.238281 138.5 L 726.113281 138.5 "/>
</g>
<g clip-path="url(#clip7)" clip-rule="nonzero">
<path style="fill:none;stroke-width:0.426791;stroke-linecap:butt;stroke-linejoin:round;stroke:rgb(80%,80%,80%);stroke-opacity:1;stroke-miterlimit:10;" d="M 55.238281 44.054688 L 726.113281 44.054688 "/>
</g>
<g clip-path="url(#clip8)" clip-rule="nonzero">
<path style="fill:none;stroke-width:0.426791;stroke-linecap:butt;stroke-linejoin:round;stroke:rgb(80%,80%,80%);stroke-opacity:1;stroke-miterlimit:10;" d="M 94.699219 341.554688 L 94.699219 29.886719 "/>
</g>
<g clip-path="url(#clip9)" clip-rule="nonzero">
<path style="fill:none;stroke-width:0.426791;stroke-linecap:butt;stroke-linejoin:round;stroke:rgb(80%,80%,80%);stroke-opacity:1;stroke-miterlimit:10;" d="M 160.472656 341.554688 L 160.472656 29.886719 "/>
</g>
<g clip-path="url(#clip10)" clip-rule="nonzero">
<path style="fill:none;stroke-width:0.426791;stroke-linecap:butt;stroke-linejoin:round;stroke:rgb(80%,80%,80%);stroke-opacity:1;stroke-miterlimit:10;" d="M 226.242188 341.554688 L 226.242188 29.886719 "/>
</g>
<g clip-path="url(#clip11)" clip-rule="nonzero">
<path style="fill:none;stroke-width:0.426791;stroke-linecap:butt;stroke-linejoin:round;stroke:rgb(80%,80%,80%);stroke-opacity:1;stroke-miterlimit:10;" d="M 292.015625 341.554688 L 292.015625 29.886719 "/>
</g>
<g clip-path="url(#clip12)" clip-rule="nonzero">
<path style="fill:none;stroke-width:0.426791;stroke-linecap:butt;stroke-linejoin:round;stroke:rgb(80%,80%,80%);stroke-opacity:1;stroke-miterlimit:10;" d="M 357.789062 341.554688 L 357.789062 29.886719 "/>
</g>
<g clip-path="url(#clip13)" clip-rule="nonzero">
<path style="fill:none;stroke-width:0.426791;stroke-linecap:butt;stroke-linejoin:round;stroke:rgb(80%,80%,80%);stroke-opacity:1;stroke-miterlimit:10;" d="M 423.558594 341.554688 L 423.558594 29.886719 "/>
</g>
<g clip-path="url(#clip14)" clip-rule="nonzero">
<path style="fill:none;stroke-width:0.426791;stroke-linecap:butt;stroke-linejoin:round;stroke:rgb(80%,80%,80%);stroke-opacity:1;stroke-miterlimit:10;" d="M 489.332031 341.554688 L 489.332031 29.886719 "/>
</g>
<g clip-path="url(#clip15)" clip-rule="nonzero">
<path style="fill:none;stroke-width:0.426791;stroke-linecap:butt;stroke-linejoin:round;stroke:rgb(80%,80%,80%);stroke-opacity:1;stroke-miterlimit:10;" d="M 555.105469 341.554688 L 555.105469 29.886719 "/>
</g>
<g clip-path="url(#clip16)" clip-rule="nonzero">
<path style="fill:none;stroke-width:0.426791;stroke-linecap:butt;stroke-linejoin:round;stroke:rgb(80%,80%,80%);stroke-opacity:1;stroke-miterlimit:10;" d="M 620.875 341.554688 L 620.875 29.886719 "/>
</g>
<g clip-path="url(#clip17)" clip-rule="nonzero">
<path style="fill:none;stroke-width:0.426791;stroke-linecap:butt;stroke-linejoin:round;stroke:rgb(80%,80%,80%);stroke-opacity:1;stroke-miterlimit:10;" d="M 686.648438 341.554688 L 686.648438 29.886719 "/>
</g>
<path style="fill-rule:nonzero;fill:rgb(54.509804%,14.509804%,10.980392%);fill-opacity:1;stroke-width:1.066978;stroke-linecap:square;stroke-linejoin:miter;stroke:rgb(0%,0%,0%);stroke-opacity:1;stroke-miterlimit:10;" d="M 65.101562 327.386719 L 124.296875 327.386719 L 124.296875 44.054688 L 65.101562 44.054688 Z M 65.101562 327.386719 "/>
<path style="fill-rule:nonzero;fill:rgb(54.509804%,14.509804%,10.980392%);fill-opacity:1;stroke-width:1.066978;stroke-linecap:square;stroke-linejoin:miter;stroke:rgb(0%,0%,0%);stroke-opacity:1;stroke-miterlimit:10;" d="M 130.875 327.386719 L 190.070312 327.386719 L 190.070312 242.386719 L 130.875 242.386719 Z M 130.875 327.386719 "/>
<path style="fill-rule:nonzero;fill:rgb(54.509804%,14.509804%,10.980392%);fill-opacity:1;stroke-width:1.066978;stroke-linecap:square;stroke-linejoin:miter;stroke:rgb(0%,0%,0%);stroke-opacity:1;stroke-miterlimit:10;" d="M 196.648438 327.386719 L 255.84375 327.386719 L 255.84375 214.054688 L 196.648438 214.054688 Z M 196.648438 327.386719 "/>
<path style="fill-rule:nonzero;fill:rgb(54.509804%,14.509804%,10.980392%);fill-opacity:1;stroke-width:1.066978;stroke-linecap:square;stroke-linejoin:miter;stroke:rgb(0%,0%,0%);stroke-opacity:1;stroke-miterlimit:10;" d="M 262.417969 327.386719 L 321.613281 327.386719 L 321.613281 280.164062 L 262.417969 280.164062 Z M 262.417969 327.386719 "/>
<path style="fill-rule:nonzero;fill:rgb(54.509804%,14.509804%,10.980392%);fill-opacity:1;stroke-width:1.066978;stroke-linecap:square;stroke-linejoin:miter;stroke:rgb(0%,0%,0%);stroke-opacity:1;stroke-miterlimit:10;" d="M 328.191406 327.386719 L 387.386719 327.386719 L 387.386719 270.71875 L 328.191406 270.71875 Z M 328.191406 327.386719 "/>
<path style="fill-rule:nonzero;fill:rgb(54.509804%,14.509804%,10.980392%);fill-opacity:1;stroke-width:1.066978;stroke-linecap:square;stroke-linejoin:miter;stroke:rgb(0%,0%,0%);stroke-opacity:1;stroke-miterlimit:10;" d="M 393.964844 327.386719 L 453.160156 327.386719 L 453.160156 261.277344 L 393.964844 261.277344 Z M 393.964844 327.386719 "/>
<path style="fill-rule:nonzero;fill:rgb(54.509804%,14.509804%,10.980392%);fill-opacity:1;stroke-width:1.066978;stroke-linecap:square;stroke-linejoin:miter;stroke:rgb(0%,0%,0%);stroke-opacity:1;stroke-miterlimit:10;" d="M 459.734375 327.386719 L 518.929688 327.386719 L 518.929688 280.164062 L 459.734375 280.164062 Z M 459.734375 327.386719 "/>
<path style="fill-rule:nonzero;fill:rgb(54.509804%,14.509804%,10.980392%);fill-opacity:1;stroke-width:1.066978;stroke-linecap:square;stroke-linejoin:miter;stroke:rgb(0%,0%,0%);stroke-opacity:1;stroke-miterlimit:10;" d="M 525.507812 327.386719 L 584.703125 327.386719 L 584.703125 308.496094 L 525.507812 308.496094 Z M 525.507812 327.386719 "/>
<path style="fill-rule:nonzero;fill:rgb(54.509804%,14.509804%,10.980392%);fill-opacity:1;stroke-width:1.066978;stroke-linecap:square;stroke-linejoin:miter;stroke:rgb(0%,0%,0%);stroke-opacity:1;stroke-miterlimit:10;" d="M 591.277344 327.386719 L 650.472656 327.386719 L 650.472656 308.496094 L 591.277344 308.496094 Z M 591.277344 327.386719 "/>
<path style="fill-rule:nonzero;fill:rgb(54.509804%,14.509804%,10.980392%);fill-opacity:1;stroke-width:1.066978;stroke-linecap:square;stroke-linejoin:miter;stroke:rgb(0%,0%,0%);stroke-opacity:1;stroke-miterlimit:10;" d="M 657.050781 327.386719 L 716.246094 327.386719 L 716.246094 157.386719 L 657.050781 157.386719 Z M 657.050781 327.386719 "/>
<path style=" stroke:none;fill-rule:nonzero;fill:rgb(30.196078%,30.196078%,30.196078%);fill-opacity:1;" d="M 51.722656 327.988281 L 51.714844 328.34375 L 51.699219 328.675781 L 51.671875 328.992188 L 51.636719 329.289062 L 51.589844 329.570312 L 51.53125 329.832031 L 51.460938 330.074219 L 51.382812 330.300781 L 51.292969 330.507812 L 51.191406 330.695312 L 51.082031 330.867188 L 50.957031 331.015625 L 50.824219 331.152344 L 50.675781 331.265625 L 50.515625 331.367188 L 50.34375 331.445312 L 50.160156 331.507812 L 49.964844 331.554688 L 49.757812 331.578125 L 49.535156 331.589844 L 49.324219 331.582031 L 49.121094 331.554688 L 48.929688 331.511719 L 48.75 331.453125 L 48.582031 331.375 L 48.421875 331.28125 L 48.277344 331.167969 L 48.140625 331.039062 L 48.015625 330.894531 L 47.902344 330.730469 L 47.800781 330.550781 L 47.707031 330.351562 L 47.625 330.136719 L 47.554688 329.902344 L 47.492188 329.652344 L 47.441406 329.386719 L 47.402344 329.101562 L 47.371094 328.800781 L 47.351562 328.484375 L 47.339844 328.148438 L 47.339844 326.742188 L 47.347656 326.394531 L 47.363281 326.0625 L 47.386719 325.75 L 47.425781 325.457031 L 47.472656 325.179688 L 47.53125 324.921875 L 47.601562 324.679688 L 47.679688 324.457031 L 47.769531 324.253906 L 47.867188 324.070312 L 47.980469 323.902344 L 48.105469 323.753906 L 48.242188 323.621094 L 48.390625 323.503906 L 48.550781 323.410156 L 48.722656 323.328125 L 48.90625 323.269531 L 49.101562 323.222656 L 49.308594 323.195312 L 49.523438 323.1875 L 49.742188 323.195312 L 49.945312 323.222656 L 50.136719 323.261719 L 50.316406 323.320312 L 50.488281 323.398438 L 50.644531 323.488281 L 50.789062 323.597656 L 50.925781 323.722656 L 51.046875 323.867188 L 51.160156 324.023438 L 51.261719 324.199219 L 51.351562 324.394531 L 51.433594 324.605469 L 51.503906 324.832031 L 51.566406 325.078125 L 51.617188 325.339844 L 51.660156 325.617188 L 51.691406 325.914062 L 51.710938 326.226562 L 51.722656 326.558594 Z M 50.726562 326.570312 L 50.722656 326.316406 L 50.714844 326.078125 L 50.703125 325.851562 L 50.679688 325.640625 L 50.65625 325.441406 L 50.625 325.257812 L 50.585938 325.089844 L 50.542969 324.933594 L 50.496094 324.789062 L 50.441406 324.660156 L 50.378906 324.542969 L 50.3125 324.4375 L 50.238281 324.34375 L 50.15625 324.265625 L 50.070312 324.195312 L 49.972656 324.140625 L 49.871094 324.097656 L 49.761719 324.066406 L 49.648438 324.046875 L 49.523438 324.042969 L 49.40625 324.046875 L 49.292969 324.066406 L 49.1875 324.097656 L 49.085938 324.140625 L 48.996094 324.195312 L 48.90625 324.261719 L 48.828125 324.339844 L 48.753906 324.429688 L 48.6875 324.53125 L 48.625 324.648438 L 48.574219 324.773438 L 48.523438 324.914062 L 48.480469 325.0625 L 48.441406 325.226562 L 48.410156 325.402344 L 48.382812 325.589844 L 48.359375 325.792969 L 48.34375 326.003906 L 48.335938 326.230469 L 48.328125 326.46875 L 48.328125 328.152344 L 48.332031 328.402344 L 48.339844 328.644531 L 48.355469 328.871094 L 48.375 329.082031 L 48.402344 329.285156 L 48.4375 329.472656 L 48.476562 329.648438 L 48.519531 329.808594 L 48.570312 329.957031 L 48.625 330.09375 L 48.691406 330.21875 L 48.757812 330.328125 L 48.832031 330.425781 L 48.914062 330.507812 L 49.003906 330.578125 L 49.097656 330.636719 L 49.199219 330.683594 L 49.304688 330.714844 L 49.417969 330.734375 L 49.535156 330.742188 L 49.65625 330.734375 L 49.765625 330.714844 L 49.871094 330.6875 L 49.96875 330.644531 L 50.0625 330.585938 L 50.148438 330.519531 L 50.230469 330.441406 L 50.300781 330.347656 L 50.367188 330.246094 L 50.429688 330.128906 L 50.484375 330 L 50.53125 329.859375 L 50.578125 329.703125 L 50.613281 329.535156 L 50.648438 329.355469 L 50.675781 329.160156 L 50.695312 328.957031 L 50.710938 328.734375 L 50.722656 328.503906 L 50.726562 328.257812 Z M 50.726562 326.570312 "/>
<path style=" stroke:none;fill-rule:nonzero;fill:rgb(30.196078%,30.196078%,30.196078%);fill-opacity:1;" d="M 44.632812 237.03125 L 43.636719 237.03125 L 43.636719 230.109375 L 41.917969 230.878906 L 41.917969 229.933594 L 44.476562 228.816406 L 44.632812 228.816406 Z M 44.632812 237.03125 "/>
<path style=" stroke:none;fill-rule:nonzero;fill:rgb(30.196078%,30.196078%,30.196078%);fill-opacity:1;" d="M 51.722656 233.542969 L 51.714844 233.898438 L 51.699219 234.230469 L 51.671875 234.546875 L 51.636719 234.84375 L 51.589844 235.125 L 51.53125 235.386719 L 51.460938 235.628906 L 51.382812 235.855469 L 51.292969 236.0625 L 51.191406 236.25 L 51.082031 236.421875 L 50.957031 236.574219 L 50.824219 236.707031 L 50.675781 236.824219 L 50.515625 236.921875 L 50.34375 237 L 50.160156 237.0625 L 49.964844 237.109375 L 49.757812 237.136719 L 49.535156 237.144531 L 49.324219 237.136719 L 49.121094 237.109375 L 48.929688 237.066406 L 48.75 237.007812 L 48.582031 236.929688 L 48.421875 236.835938 L 48.277344 236.722656 L 48.140625 236.59375 L 48.015625 236.449219 L 47.902344 236.285156 L 47.800781 236.105469 L 47.707031 235.90625 L 47.625 235.691406 L 47.554688 235.460938 L 47.492188 235.210938 L 47.441406 234.941406 L 47.402344 234.660156 L 47.371094 234.355469 L 47.351562 234.039062 L 47.339844 233.703125 L 47.339844 232.296875 L 47.347656 231.949219 L 47.363281 231.617188 L 47.386719 231.304688 L 47.425781 231.011719 L 47.472656 230.734375 L 47.53125 230.476562 L 47.601562 230.234375 L 47.679688 230.015625 L 47.769531 229.8125 L 47.867188 229.625 L 47.980469 229.457031 L 48.105469 229.308594 L 48.242188 229.175781 L 48.390625 229.0625 L 48.550781 228.964844 L 48.722656 228.882812 L 48.90625 228.824219 L 49.101562 228.777344 L 49.308594 228.753906 L 49.523438 228.742188 L 49.742188 228.753906 L 49.945312 228.777344 L 50.136719 228.820312 L 50.316406 228.878906 L 50.488281 228.953125 L 50.644531 229.042969 L 50.789062 229.152344 L 50.925781 229.277344 L 51.046875 229.421875 L 51.160156 229.582031 L 51.261719 229.757812 L 51.351562 229.949219 L 51.433594 230.160156 L 51.503906 230.386719 L 51.566406 230.632812 L 51.617188 230.894531 L 51.660156 231.171875 L 51.691406 231.46875 L 51.710938 231.78125 L 51.722656 232.113281 Z M 50.726562 232.125 L 50.722656 231.871094 L 50.714844 231.632812 L 50.703125 231.40625 L 50.679688 231.195312 L 50.65625 231 L 50.625 230.8125 L 50.585938 230.644531 L 50.542969 230.488281 L 50.496094 230.34375 L 50.441406 230.214844 L 50.378906 230.097656 L 50.3125 229.992188 L 50.238281 229.898438 L 50.15625 229.820312 L 50.070312 229.75 L 49.972656 229.695312 L 49.871094 229.652344 L 49.761719 229.621094 L 49.648438 229.601562 L 49.523438 229.597656 L 49.40625 229.601562 L 49.292969 229.621094 L 49.1875 229.652344 L 49.085938 229.695312 L 48.996094 229.75 L 48.90625 229.816406 L 48.828125 229.894531 L 48.753906 229.984375 L 48.6875 230.089844 L 48.625 230.203125 L 48.574219 230.328125 L 48.523438 230.46875 L 48.480469 230.621094 L 48.441406 230.78125 L 48.410156 230.957031 L 48.382812 231.148438 L 48.359375 231.347656 L 48.34375 231.558594 L 48.335938 231.785156 L 48.328125 232.023438 L 48.328125 233.707031 L 48.332031 233.960938 L 48.339844 234.199219 L 48.355469 234.425781 L 48.375 234.636719 L 48.402344 234.839844 L 48.4375 235.027344 L 48.476562 235.203125 L 48.519531 235.363281 L 48.570312 235.515625 L 48.625 235.652344 L 48.691406 235.773438 L 48.757812 235.882812 L 48.832031 235.980469 L 48.914062 236.0625 L 49.003906 236.132812 L 49.097656 236.191406 L 49.199219 236.238281 L 49.304688 236.269531 L 49.417969 236.289062 L 49.535156 236.296875 L 49.65625 236.289062 L 49.765625 236.273438 L 49.871094 236.242188 L 49.96875 236.199219 L 50.0625 236.144531 L 50.148438 236.074219 L 50.230469 235.996094 L 50.300781 235.90625 L 50.367188 235.800781 L 50.429688 235.683594 L 50.484375 235.554688 L 50.53125 235.414062 L 50.578125 235.257812 L 50.613281 235.089844 L 50.648438 234.910156 L 50.675781 234.71875 L 50.695312 234.511719 L 50.710938 234.292969 L 50.722656 234.058594 L 50.726562 233.8125 Z M 50.726562 232.125 "/>
<path style=" stroke:none;fill-rule:nonzero;fill:rgb(30.196078%,30.196078%,30.196078%);fill-opacity:1;" d="M 46.246094 142.585938 L 41.675781 142.585938 L 41.675781 141.839844 L 44.003906 138.75 L 44.109375 138.613281 L 44.203125 138.476562 L 44.292969 138.347656 L 44.375 138.222656 L 44.453125 138.101562 L 44.523438 137.988281 L 44.585938 137.878906 L 44.640625 137.777344 L 44.691406 137.675781 L 44.734375 137.582031 L 44.773438 137.492188 L 44.808594 137.398438 L 44.839844 137.304688 L 44.867188 137.207031 L 44.890625 137.109375 L 44.910156 137.011719 L 44.925781 136.914062 L 44.933594 136.816406 L 44.941406 136.714844 L 44.941406 136.484375 L 44.917969 136.242188 L 44.894531 136.132812 L 44.867188 136.023438 L 44.835938 135.917969 L 44.792969 135.820312 L 44.75 135.726562 L 44.699219 135.640625 L 44.640625 135.558594 L 44.578125 135.480469 L 44.511719 135.410156 L 44.441406 135.351562 L 44.367188 135.296875 L 44.289062 135.253906 L 44.207031 135.21875 L 44.121094 135.1875 L 44.03125 135.167969 L 43.941406 135.15625 L 43.84375 135.152344 L 43.722656 135.15625 L 43.605469 135.167969 L 43.492188 135.191406 L 43.390625 135.222656 L 43.289062 135.261719 L 43.195312 135.308594 L 43.109375 135.363281 L 43.023438 135.429688 L 42.949219 135.503906 L 42.875 135.585938 L 42.8125 135.675781 L 42.753906 135.769531 L 42.707031 135.875 L 42.660156 135.988281 L 42.625 136.105469 L 42.59375 136.234375 L 42.570312 136.371094 L 42.554688 136.511719 L 42.542969 136.664062 L 42.539062 136.820312 L 41.546875 136.820312 L 41.550781 136.597656 L 41.570312 136.386719 L 41.601562 136.183594 L 41.644531 135.988281 L 41.699219 135.800781 L 41.769531 135.621094 L 41.847656 135.453125 L 41.941406 135.292969 L 42.046875 135.140625 L 42.164062 134.996094 L 42.292969 134.863281 L 42.429688 134.746094 L 42.574219 134.640625 L 42.730469 134.550781 L 42.890625 134.472656 L 43.066406 134.410156 L 43.246094 134.363281 L 43.4375 134.328125 L 43.636719 134.304688 L 43.84375 134.300781 L 44.035156 134.304688 L 44.21875 134.324219 L 44.390625 134.351562 L 44.558594 134.394531 L 44.714844 134.449219 L 44.867188 134.515625 L 45.007812 134.59375 L 45.140625 134.683594 L 45.265625 134.785156 L 45.382812 134.898438 L 45.488281 135.023438 L 45.582031 135.152344 L 45.667969 135.292969 L 45.742188 135.441406 L 45.800781 135.59375 L 45.851562 135.757812 L 45.890625 135.929688 L 45.921875 136.105469 L 45.9375 136.292969 L 45.941406 136.488281 L 45.929688 136.734375 L 45.890625 136.992188 L 45.828125 137.257812 L 45.742188 137.53125 L 45.628906 137.8125 L 45.488281 138.105469 L 45.324219 138.40625 L 45.132812 138.714844 L 44.917969 139.03125 L 44.679688 139.359375 L 42.859375 141.738281 L 46.246094 141.738281 Z M 46.246094 142.585938 "/>
<path style=" stroke:none;fill-rule:nonzero;fill:rgb(30.196078%,30.196078%,30.196078%);fill-opacity:1;" d="M 51.722656 139.101562 L 51.714844 139.453125 L 51.699219 139.785156 L 51.671875 140.101562 L 51.636719 140.402344 L 51.589844 140.679688 L 51.53125 140.941406 L 51.460938 141.1875 L 51.382812 141.410156 L 51.292969 141.617188 L 51.191406 141.804688 L 51.082031 141.976562 L 50.957031 142.128906 L 50.824219 142.261719 L 50.675781 142.378906 L 50.515625 142.476562 L 50.34375 142.554688 L 50.160156 142.617188 L 49.964844 142.664062 L 49.757812 142.691406 L 49.535156 142.699219 L 49.324219 142.691406 L 49.121094 142.664062 L 48.929688 142.621094 L 48.75 142.5625 L 48.582031 142.484375 L 48.421875 142.390625 L 48.277344 142.277344 L 48.140625 142.148438 L 48.015625 142.003906 L 47.902344 141.839844 L 47.800781 141.660156 L 47.707031 141.460938 L 47.625 141.246094 L 47.554688 141.015625 L 47.492188 140.765625 L 47.441406 140.496094 L 47.402344 140.214844 L 47.371094 139.914062 L 47.351562 139.59375 L 47.339844 139.257812 L 47.339844 137.851562 L 47.347656 137.503906 L 47.363281 137.171875 L 47.386719 136.859375 L 47.425781 136.566406 L 47.472656 136.289062 L 47.53125 136.03125 L 47.601562 135.792969 L 47.679688 135.570312 L 47.769531 135.367188 L 47.867188 135.179688 L 47.980469 135.011719 L 48.105469 134.863281 L 48.242188 134.730469 L 48.390625 134.617188 L 48.550781 134.519531 L 48.722656 134.441406 L 48.90625 134.378906 L 49.101562 134.335938 L 49.308594 134.308594 L 49.523438 134.300781 L 49.742188 134.308594 L 49.945312 134.332031 L 50.136719 134.375 L 50.316406 134.433594 L 50.488281 134.507812 L 50.644531 134.601562 L 50.789062 134.710938 L 50.925781 134.835938 L 51.046875 134.976562 L 51.160156 135.136719 L 51.261719 135.3125 L 51.351562 135.503906 L 51.433594 135.714844 L 51.503906 135.941406 L 51.566406 136.1875 L 51.617188 136.449219 L 51.660156 136.726562 L 51.691406 137.023438 L 51.710938 137.335938 L 51.722656 137.667969 Z M 50.726562 137.679688 L 50.722656 137.425781 L 50.714844 137.1875 L 50.703125 136.960938 L 50.679688 136.75 L 50.65625 136.554688 L 50.625 136.371094 L 50.585938 136.199219 L 50.542969 136.042969 L 50.496094 135.898438 L 50.441406 135.769531 L 50.378906 135.652344 L 50.3125 135.546875 L 50.238281 135.457031 L 50.15625 135.375 L 50.070312 135.308594 L 49.972656 135.25 L 49.871094 135.207031 L 49.761719 135.175781 L 49.648438 135.160156 L 49.523438 135.152344 L 49.40625 135.160156 L 49.292969 135.175781 L 49.1875 135.207031 L 49.085938 135.25 L 48.996094 135.304688 L 48.90625 135.371094 L 48.828125 135.449219 L 48.753906 135.539062 L 48.6875 135.644531 L 48.625 135.757812 L 48.574219 135.886719 L 48.523438 136.023438 L 48.480469 136.175781 L 48.441406 136.339844 L 48.410156 136.515625 L 48.382812 136.703125 L 48.359375 136.902344 L 48.34375 137.117188 L 48.335938 137.339844 L 48.328125 137.578125 L 48.328125 139.261719 L 48.332031 139.515625 L 48.339844 139.753906 L 48.355469 139.980469 L 48.375 140.195312 L 48.402344 140.394531 L 48.4375 140.582031 L 48.476562 140.757812 L 48.519531 140.917969 L 48.570312 141.070312 L 48.625 141.207031 L 48.691406 141.328125 L 48.757812 141.4375 L 48.832031 141.535156 L 48.914062 141.617188 L 49.003906 141.691406 L 49.097656 141.75 L 49.199219 141.792969 L 49.304688 141.824219 L 49.417969 141.84375 L 49.535156 141.851562 L 49.65625 141.84375 L 49.765625 141.828125 L 49.871094 141.796875 L 49.96875 141.753906 L 50.0625 141.699219 L 50.148438 141.632812 L 50.230469 141.550781 L 50.300781 141.460938 L 50.367188 141.355469 L 50.429688 141.238281 L 50.484375 141.109375 L 50.53125 140.96875 L 50.578125 140.8125 L 50.613281 140.648438 L 50.648438 140.464844 L 50.675781 140.273438 L 50.695312 140.066406 L 50.710938 139.847656 L 50.722656 139.613281 L 50.726562 139.371094 Z M 50.726562 137.679688 "/>
<path style=" stroke:none;fill-rule:nonzero;fill:rgb(30.196078%,30.196078%,30.196078%);fill-opacity:1;" d="M 42.945312 43.550781 L 43.578125 43.550781 L 43.699219 43.546875 L 43.8125 43.535156 L 43.921875 43.515625 L 44.023438 43.488281 L 44.121094 43.457031 L 44.210938 43.414062 L 44.296875 43.363281 L 44.378906 43.308594 L 44.453125 43.246094 L 44.523438 43.171875 L 44.585938 43.09375 L 44.640625 43.011719 L 44.691406 42.921875 L 44.734375 42.828125 L 44.769531 42.726562 L 44.800781 42.621094 L 44.824219 42.511719 L 44.839844 42.394531 L 44.851562 42.273438 L 44.851562 42.144531 L 44.84375 41.871094 L 44.808594 41.628906 L 44.753906 41.414062 L 44.675781 41.226562 L 44.574219 41.066406 L 44.453125 40.9375 L 44.308594 40.835938 L 44.140625 40.765625 L 43.953125 40.722656 L 43.742188 40.707031 L 43.636719 40.710938 L 43.539062 40.722656 L 43.441406 40.742188 L 43.351562 40.769531 L 43.265625 40.804688 L 43.183594 40.847656 L 43.109375 40.898438 L 43.035156 40.957031 L 42.96875 41.023438 L 42.90625 41.09375 L 42.847656 41.175781 L 42.796875 41.261719 L 42.75 41.347656 L 42.710938 41.445312 L 42.675781 41.542969 L 42.648438 41.648438 L 42.628906 41.757812 L 42.613281 41.871094 L 42.605469 41.988281 L 42.601562 42.113281 L 41.613281 42.113281 L 41.621094 41.917969 L 41.636719 41.734375 L 41.667969 41.554688 L 41.707031 41.382812 L 41.761719 41.214844 L 41.828125 41.058594 L 41.90625 40.90625 L 41.996094 40.761719 L 42.09375 40.625 L 42.207031 40.496094 L 42.332031 40.371094 L 42.460938 40.265625 L 42.597656 40.167969 L 42.742188 40.085938 L 42.890625 40.015625 L 43.050781 39.957031 L 43.210938 39.910156 L 43.382812 39.878906 L 43.558594 39.859375 L 43.742188 39.855469 L 43.929688 39.859375 L 44.113281 39.878906 L 44.285156 39.910156 L 44.449219 39.953125 L 44.609375 40.007812 L 44.757812 40.074219 L 44.898438 40.152344 L 45.03125 40.242188 L 45.15625 40.34375 L 45.273438 40.460938 L 45.382812 40.585938 L 45.480469 40.722656 L 45.5625 40.867188 L 45.636719 41.023438 L 45.699219 41.1875 L 45.75 41.363281 L 45.789062 41.550781 L 45.820312 41.746094 L 45.835938 41.953125 L 45.839844 42.167969 L 45.839844 42.28125 L 45.816406 42.5 L 45.792969 42.609375 L 45.765625 42.714844 L 45.734375 42.820312 L 45.695312 42.925781 L 45.652344 43.027344 L 45.601562 43.128906 L 45.542969 43.230469 L 45.484375 43.324219 L 45.421875 43.414062 L 45.351562 43.5 L 45.28125 43.578125 L 45.207031 43.652344 L 45.128906 43.722656 L 45.046875 43.785156 L 44.960938 43.84375 L 44.871094 43.898438 L 44.78125 43.949219 L 45 44.042969 L 45.195312 44.160156 L 45.371094 44.300781 L 45.519531 44.460938 L 45.648438 44.640625 L 45.753906 44.84375 L 45.832031 45.066406 L 45.890625 45.308594 L 45.925781 45.574219 L 45.9375 45.863281 L 45.929688 46.078125 L 45.914062 46.28125 L 45.882812 46.480469 L 45.839844 46.667969 L 45.785156 46.847656 L 45.71875 47.015625 L 45.636719 47.179688 L 45.546875 47.332031 L 45.441406 47.472656 L 45.324219 47.609375 L 45.199219 47.730469 L 45.066406 47.839844 L 44.925781 47.9375 L 44.78125 48.023438 L 44.625 48.09375 L 44.460938 48.152344 L 44.292969 48.195312 L 44.113281 48.230469 L 43.929688 48.25 L 43.734375 48.253906 L 43.546875 48.25 L 43.363281 48.230469 L 43.1875 48.199219 L 43.019531 48.15625 L 42.855469 48.101562 L 42.703125 48.035156 L 42.558594 47.953125 L 42.417969 47.863281 L 42.289062 47.757812 L 42.164062 47.644531 L 42.050781 47.515625 L 41.949219 47.378906 L 41.859375 47.234375 L 41.78125 47.082031 L 41.71875 46.917969 L 41.664062 46.75 L 41.621094 46.570312 L 41.59375 46.386719 L 41.574219 46.191406 L 41.570312 45.984375 L 42.5625 45.984375 L 42.566406 46.113281 L 42.574219 46.234375 L 42.589844 46.351562 L 42.613281 46.464844 L 42.640625 46.570312 L 42.675781 46.671875 L 42.714844 46.769531 L 42.765625 46.859375 L 42.816406 46.945312 L 42.875 47.023438 L 42.941406 47.097656 L 43.011719 47.164062 L 43.085938 47.21875 L 43.164062 47.269531 L 43.25 47.3125 L 43.335938 47.347656 L 43.429688 47.371094 L 43.527344 47.390625 L 43.628906 47.402344 L 43.734375 47.40625 L 43.84375 47.402344 L 43.949219 47.390625 L 44.050781 47.375 L 44.144531 47.347656 L 44.234375 47.3125 L 44.320312 47.269531 L 44.402344 47.222656 L 44.476562 47.167969 L 44.550781 47.101562 L 44.617188 47.03125 L 44.679688 46.953125 L 44.738281 46.863281 L 44.785156 46.769531 L 44.828125 46.667969 L 44.867188 46.554688 L 44.894531 46.4375 L 44.917969 46.3125 L 44.9375 46.175781 L 44.945312 46.035156 L 44.949219 45.886719 L 44.933594 45.601562 L 44.894531 45.347656 L 44.820312 45.125 L 44.722656 44.933594 L 44.597656 44.769531 L 44.441406 44.636719 L 44.257812 44.53125 L 44.046875 44.457031 L 43.808594 44.410156 L 43.539062 44.398438 L 42.945312 44.398438 Z M 42.945312 43.550781 "/>
<path style=" stroke:none;fill-rule:nonzero;fill:rgb(30.196078%,30.196078%,30.196078%);fill-opacity:1;" d="M 51.722656 44.65625 L 51.714844 45.007812 L 51.699219 45.34375 L 51.671875 45.660156 L 51.636719 45.957031 L 51.589844 46.234375 L 51.53125 46.496094 L 51.460938 46.742188 L 51.382812 46.964844 L 51.292969 47.171875 L 51.191406 47.363281 L 51.082031 47.53125 L 50.957031 47.683594 L 50.824219 47.816406 L 50.675781 47.933594 L 50.515625 48.03125 L 50.34375 48.113281 L 50.160156 48.175781 L 49.964844 48.21875 L 49.757812 48.246094 L 49.535156 48.253906 L 49.324219 48.246094 L 49.121094 48.21875 L 48.929688 48.175781 L 48.75 48.117188 L 48.582031 48.039062 L 48.421875 47.945312 L 48.277344 47.832031 L 48.140625 47.703125 L 48.015625 47.558594 L 47.902344 47.394531 L 47.800781 47.214844 L 47.707031 47.015625 L 47.625 46.800781 L 47.554688 46.570312 L 47.492188 46.320312 L 47.441406 46.054688 L 47.402344 45.769531 L 47.371094 45.46875 L 47.351562 45.148438 L 47.339844 44.8125 L 47.339844 43.410156 L 47.347656 43.058594 L 47.363281 42.730469 L 47.386719 42.414062 L 47.425781 42.121094 L 47.472656 41.84375 L 47.53125 41.585938 L 47.601562 41.347656 L 47.679688 41.125 L 47.769531 40.921875 L 47.867188 40.734375 L 47.980469 40.570312 L 48.105469 40.417969 L 48.242188 40.285156 L 48.390625 40.171875 L 48.550781 40.074219 L 48.722656 39.996094 L 48.90625 39.933594 L 49.101562 39.890625 L 49.308594 39.863281 L 49.523438 39.855469 L 49.742188 39.863281 L 49.945312 39.886719 L 50.136719 39.929688 L 50.316406 39.988281 L 50.488281 40.0625 L 50.644531 40.15625 L 50.789062 40.265625 L 50.925781 40.390625 L 51.046875 40.53125 L 51.160156 40.691406 L 51.261719 40.867188 L 51.351562 41.058594 L 51.433594 41.269531 L 51.503906 41.496094 L 51.566406 41.742188 L 51.617188 42.003906 L 51.660156 42.285156 L 51.691406 42.578125 L 51.710938 42.894531 L 51.722656 43.222656 Z M 50.726562 43.234375 L 50.722656 42.980469 L 50.714844 42.742188 L 50.703125 42.519531 L 50.679688 42.308594 L 50.65625 42.109375 L 50.625 41.925781 L 50.585938 41.753906 L 50.542969 41.597656 L 50.496094 41.453125 L 50.441406 41.324219 L 50.378906 41.207031 L 50.3125 41.101562 L 50.238281 41.011719 L 50.15625 40.929688 L 50.070312 40.863281 L 49.972656 40.808594 L 49.871094 40.761719 L 49.761719 40.734375 L 49.648438 40.714844 L 49.523438 40.707031 L 49.40625 40.714844 L 49.292969 40.730469 L 49.1875 40.761719 L 49.085938 40.804688 L 48.996094 40.859375 L 48.90625 40.925781 L 48.828125 41.003906 L 48.753906 41.097656 L 48.6875 41.199219 L 48.625 41.3125 L 48.574219 41.441406 L 48.523438 41.578125 L 48.480469 41.730469 L 48.441406 41.894531 L 48.410156 42.070312 L 48.382812 42.257812 L 48.359375 42.457031 L 48.34375 42.671875 L 48.335938 42.894531 L 48.328125 43.132812 L 48.328125 44.816406 L 48.332031 45.070312 L 48.339844 45.308594 L 48.355469 45.535156 L 48.375 45.75 L 48.402344 45.949219 L 48.4375 46.136719 L 48.476562 46.3125 L 48.519531 46.476562 L 48.570312 46.625 L 48.625 46.761719 L 48.691406 46.882812 L 48.757812 46.992188 L 48.832031 47.089844 L 48.914062 47.175781 L 49.003906 47.246094 L 49.097656 47.304688 L 49.199219 47.347656 L 49.304688 47.382812 L 49.417969 47.402344 L 49.535156 47.40625 L 49.65625 47.402344 L 49.765625 47.382812 L 49.871094 47.351562 L 49.96875 47.308594 L 50.0625 47.253906 L 50.148438 47.1875 L 50.230469 47.105469 L 50.300781 47.015625 L 50.367188 46.910156 L 50.429688 46.792969 L 50.484375 46.664062 L 50.53125 46.523438 L 50.578125 46.371094 L 50.613281 46.203125 L 50.648438 46.019531 L 50.675781 45.828125 L 50.695312 45.621094 L 50.710938 45.402344 L 50.722656 45.171875 L 50.726562 44.925781 Z M 50.726562 43.234375 "/>
<path style=" stroke:none;fill-rule:nonzero;fill:rgb(30.196078%,30.196078%,30.196078%);fill-opacity:1;" d="M 96.082031 350.460938 L 93.320312 350.460938 L 92.683594 352.59375 L 91.628906 352.59375 L 94.261719 344.417969 L 95.144531 344.417969 L 97.78125 352.59375 L 96.726562 352.59375 Z M 93.589844 349.574219 L 95.816406 349.574219 L 94.699219 345.855469 Z M 93.589844 349.574219 "/>
<path style=" stroke:none;fill-rule:nonzero;fill:rgb(30.196078%,30.196078%,30.196078%);fill-opacity:1;" d="M 160.425781 350.460938 L 157.664062 350.460938 L 157.03125 352.59375 L 155.972656 352.59375 L 158.609375 344.417969 L 159.488281 344.417969 L 162.128906 352.59375 L 161.074219 352.59375 Z M 157.933594 349.574219 L 160.164062 349.574219 L 159.046875 345.855469 Z M 157.933594 349.574219 "/>
<path style=" stroke:none;fill-rule:nonzero;fill:rgb(30.196078%,30.196078%,30.196078%);fill-opacity:1;" d="M 164.941406 349.546875 L 162.621094 349.546875 L 162.621094 348.699219 L 164.941406 348.699219 Z M 164.941406 349.546875 "/>
<path style=" stroke:none;fill-rule:nonzero;fill:rgb(30.196078%,30.196078%,30.196078%);fill-opacity:1;" d="M 223.988281 352.59375 L 223.988281 344.417969 L 226.320312 344.417969 L 226.539062 344.425781 L 226.746094 344.441406 L 226.941406 344.46875 L 227.125 344.507812 L 227.296875 344.554688 L 227.460938 344.617188 L 227.613281 344.6875 L 227.753906 344.769531 L 227.882812 344.859375 L 228 344.964844 L 228.105469 345.078125 L 228.203125 345.203125 L 228.289062 345.339844 L 228.363281 345.488281 L 228.425781 345.644531 L 228.476562 345.8125 L 228.515625 345.992188 L 228.542969 346.183594 L 228.558594 346.386719 L 228.566406 346.597656 L 228.5625 346.710938 L 228.554688 346.820312 L 228.539062 346.929688 L 228.519531 347.035156 L 228.496094 347.136719 L 228.460938 347.238281 L 228.425781 347.332031 L 228.382812 347.429688 L 228.28125 347.609375 L 228.21875 347.695312 L 228.15625 347.777344 L 228.089844 347.855469 L 228.019531 347.929688 L 227.863281 348.0625 L 227.78125 348.125 L 227.691406 348.183594 L 227.601562 348.238281 L 227.503906 348.289062 L 227.613281 348.324219 L 227.71875 348.371094 L 227.820312 348.421875 L 227.917969 348.480469 L 228.007812 348.546875 L 228.09375 348.617188 L 228.175781 348.699219 L 228.253906 348.785156 L 228.324219 348.878906 L 228.390625 348.980469 L 228.453125 349.085938 L 228.511719 349.195312 L 228.5625 349.3125 L 228.605469 349.429688 L 228.640625 349.554688 L 228.671875 349.683594 L 228.710938 349.949219 L 228.71875 350.09375 L 228.722656 350.238281 L 228.71875 350.453125 L 228.699219 350.65625 L 228.667969 350.855469 L 228.625 351.042969 L 228.570312 351.21875 L 228.503906 351.386719 L 228.425781 351.546875 L 228.335938 351.695312 L 228.230469 351.835938 L 228.117188 351.964844 L 227.992188 352.085938 L 227.855469 352.191406 L 227.710938 352.285156 L 227.554688 352.367188 L 227.386719 352.4375 L 227.210938 352.496094 L 227.023438 352.539062 L 226.824219 352.570312 L 226.617188 352.589844 L 226.398438 352.59375 Z M 225.015625 348.769531 L 225.015625 351.714844 L 226.421875 351.714844 L 226.535156 351.710938 L 226.644531 351.699219 L 226.75 351.679688 L 226.847656 351.652344 L 226.945312 351.617188 L 227.035156 351.578125 L 227.121094 351.527344 L 227.199219 351.46875 L 227.277344 351.40625 L 227.347656 351.332031 L 227.414062 351.25 L 227.472656 351.164062 L 227.523438 351.070312 L 227.566406 350.972656 L 227.605469 350.867188 L 227.636719 350.753906 L 227.660156 350.636719 L 227.675781 350.515625 L 227.6875 350.382812 L 227.691406 350.25 L 227.675781 349.96875 L 227.640625 349.714844 L 227.578125 349.496094 L 227.492188 349.304688 L 227.378906 349.140625 L 227.242188 349.007812 L 227.078125 348.902344 L 226.890625 348.832031 L 226.679688 348.785156 L 226.445312 348.769531 Z M 225.015625 347.90625 L 226.335938 347.90625 L 226.441406 347.902344 L 226.542969 347.890625 L 226.636719 347.875 L 226.730469 347.847656 L 226.816406 347.816406 L 226.902344 347.777344 L 226.980469 347.730469 L 227.058594 347.675781 L 227.128906 347.617188 L 227.195312 347.546875 L 227.257812 347.472656 L 227.316406 347.394531 L 227.363281 347.308594 L 227.40625 347.222656 L 227.445312 347.128906 L 227.472656 347.03125 L 227.496094 346.929688 L 227.515625 346.820312 L 227.523438 346.710938 L 227.527344 346.59375 L 227.523438 346.460938 L 227.515625 346.335938 L 227.5 346.222656 L 227.480469 346.113281 L 227.453125 346.011719 L 227.421875 345.917969 L 227.382812 345.832031 L 227.335938 345.75 L 227.285156 345.679688 L 227.230469 345.617188 L 227.167969 345.558594 L 227.097656 345.503906 L 227.023438 345.457031 L 226.941406 345.417969 L 226.851562 345.382812 L 226.757812 345.355469 L 226.660156 345.335938 L 226.550781 345.320312 L 226.4375 345.308594 L 225.015625 345.308594 Z M 225.015625 347.90625 "/>
<path style=" stroke:none;fill-rule:nonzero;fill:rgb(30.196078%,30.196078%,30.196078%);fill-opacity:1;" d="M 288.335938 352.59375 L 288.335938 344.417969 L 290.664062 344.417969 L 290.882812 344.425781 L 291.089844 344.441406 L 291.285156 344.46875 L 291.46875 344.507812 L 291.644531 344.554688 L 291.804688 344.617188 L 291.957031 344.6875 L 292.097656 344.769531 L 292.226562 344.859375 L 292.34375 344.964844 L 292.453125 345.078125 L 292.546875 345.203125 L 292.632812 345.339844 L 292.707031 345.488281 L 292.769531 345.644531 L 292.820312 345.8125 L 292.859375 345.992188 L 292.890625 346.183594 L 292.90625 346.386719 L 292.910156 346.597656 L 292.910156 346.710938 L 292.886719 346.929688 L 292.867188 347.035156 L 292.839844 347.136719 L 292.808594 347.238281 L 292.769531 347.332031 L 292.726562 347.429688 L 292.679688 347.519531 L 292.625 347.609375 L 292.566406 347.695312 L 292.503906 347.777344 L 292.433594 347.855469 L 292.363281 347.929688 L 292.289062 347.996094 L 292.207031 348.0625 L 292.125 348.125 L 292.039062 348.183594 L 291.945312 348.238281 L 291.851562 348.289062 L 291.960938 348.324219 L 292.066406 348.371094 L 292.167969 348.421875 L 292.261719 348.480469 L 292.351562 348.546875 L 292.4375 348.617188 L 292.519531 348.699219 L 292.597656 348.785156 L 292.671875 348.878906 L 292.738281 348.980469 L 292.800781 349.085938 L 292.855469 349.195312 L 292.90625 349.3125 L 292.949219 349.429688 L 292.984375 349.554688 L 293.015625 349.683594 L 293.039062 349.816406 L 293.054688 349.949219 L 293.066406 350.09375 L 293.070312 350.238281 L 293.0625 350.453125 L 293.042969 350.65625 L 293.015625 350.855469 L 292.972656 351.042969 L 292.917969 351.21875 L 292.851562 351.386719 L 292.773438 351.546875 L 292.679688 351.695312 L 292.578125 351.835938 L 292.460938 351.964844 L 292.335938 352.085938 L 292.203125 352.191406 L 292.054688 352.285156 L 291.898438 352.367188 L 291.734375 352.4375 L 291.554688 352.496094 L 291.367188 352.539062 L 291.171875 352.570312 L 290.960938 352.589844 L 290.746094 352.59375 Z M 289.363281 348.769531 L 289.363281 351.714844 L 290.765625 351.714844 L 290.882812 351.710938 L 290.992188 351.699219 L 291.09375 351.679688 L 291.195312 351.652344 L 291.289062 351.617188 L 291.378906 351.578125 L 291.464844 351.527344 L 291.546875 351.46875 L 291.621094 351.40625 L 291.691406 351.332031 L 291.757812 351.25 L 291.816406 351.164062 L 291.867188 351.070312 L 291.914062 350.972656 L 291.949219 350.867188 L 291.980469 350.753906 L 292.003906 350.636719 L 292.023438 350.515625 L 292.03125 350.382812 L 292.035156 350.25 L 292.023438 349.96875 L 291.984375 349.714844 L 291.921875 349.496094 L 291.835938 349.304688 L 291.722656 349.140625 L 291.585938 349.007812 L 291.425781 348.902344 L 291.238281 348.832031 L 291.027344 348.785156 L 290.789062 348.769531 Z M 289.363281 347.90625 L 290.683594 347.90625 L 290.789062 347.902344 L 290.886719 347.890625 L 290.984375 347.875 L 291.074219 347.847656 L 291.164062 347.816406 L 291.246094 347.777344 L 291.328125 347.730469 L 291.402344 347.675781 L 291.472656 347.617188 L 291.542969 347.546875 L 291.605469 347.472656 L 291.660156 347.394531 L 291.710938 347.308594 L 291.753906 347.222656 L 291.789062 347.128906 L 291.820312 347.03125 L 291.84375 346.929688 L 291.859375 346.820312 L 291.871094 346.710938 L 291.871094 346.460938 L 291.859375 346.335938 L 291.847656 346.222656 L 291.824219 346.113281 L 291.796875 346.011719 L 291.765625 345.917969 L 291.726562 345.832031 L 291.683594 345.75 L 291.632812 345.679688 L 291.574219 345.617188 L 291.511719 345.558594 L 291.445312 345.503906 L 291.367188 345.457031 L 291.285156 345.417969 L 291.199219 345.382812 L 291.105469 345.355469 L 291.003906 345.335938 L 290.898438 345.320312 L 290.785156 345.308594 L 289.363281 345.308594 Z M 289.363281 347.90625 "/>
<path style=" stroke:none;fill-rule:nonzero;fill:rgb(30.196078%,30.196078%,30.196078%);fill-opacity:1;" d="M 296.308594 349.546875 L 293.988281 349.546875 L 293.988281 348.699219 L 296.308594 348.699219 Z M 296.308594 349.546875 "/>
<path style=" stroke:none;fill-rule:nonzero;fill:rgb(30.196078%,30.196078%,30.196078%);fill-opacity:1;" d="M 352.679688 352.59375 L 352.679688 344.417969 L 355.007812 344.417969 L 355.226562 344.425781 L 355.433594 344.441406 L 355.628906 344.46875 L 355.8125 344.507812 L 355.988281 344.554688 L 356.148438 344.617188 L 356.300781 344.6875 L 356.441406 344.769531 L 356.570312 344.859375 L 356.6875 344.964844 L 356.796875 345.078125 L 356.890625 345.203125 L 356.976562 345.339844 L 357.050781 345.488281 L 357.113281 345.644531 L 357.164062 345.8125 L 357.203125 345.992188 L 357.230469 346.183594 L 357.25 346.386719 L 357.253906 346.597656 L 357.25 346.710938 L 357.242188 346.820312 L 357.230469 346.929688 L 357.210938 347.035156 L 357.183594 347.136719 L 357.152344 347.238281 L 357.113281 347.332031 L 357.070312 347.429688 L 357.023438 347.519531 L 356.96875 347.609375 L 356.910156 347.695312 L 356.847656 347.777344 L 356.777344 347.855469 L 356.707031 347.929688 L 356.632812 347.996094 L 356.550781 348.0625 L 356.46875 348.125 L 356.382812 348.183594 L 356.289062 348.238281 L 356.195312 348.289062 L 356.304688 348.324219 L 356.410156 348.371094 L 356.507812 348.421875 L 356.605469 348.480469 L 356.695312 348.546875 L 356.78125 348.617188 L 356.863281 348.699219 L 356.941406 348.785156 L 357.011719 348.878906 L 357.082031 348.980469 L 357.144531 349.085938 L 357.199219 349.195312 L 357.25 349.3125 L 357.292969 349.429688 L 357.328125 349.554688 L 357.359375 349.683594 L 357.382812 349.816406 L 357.398438 349.949219 L 357.410156 350.09375 L 357.410156 350.238281 L 357.40625 350.453125 L 357.386719 350.65625 L 357.359375 350.855469 L 357.316406 351.042969 L 357.261719 351.21875 L 357.195312 351.386719 L 357.113281 351.546875 L 357.023438 351.695312 L 356.921875 351.835938 L 356.804688 351.964844 L 356.679688 352.085938 L 356.542969 352.191406 L 356.398438 352.285156 L 356.242188 352.367188 L 356.074219 352.4375 L 355.898438 352.496094 L 355.710938 352.539062 L 355.511719 352.570312 L 355.304688 352.589844 L 355.085938 352.59375 Z M 353.707031 348.769531 L 353.707031 351.714844 L 355.109375 351.714844 L 355.222656 351.710938 L 355.332031 351.699219 L 355.4375 351.679688 L 355.539062 351.652344 L 355.632812 351.617188 L 355.722656 351.578125 L 355.808594 351.527344 L 355.890625 351.46875 L 355.964844 351.40625 L 356.035156 351.332031 L 356.101562 351.25 L 356.160156 351.164062 L 356.210938 351.070312 L 356.253906 350.972656 L 356.292969 350.867188 L 356.324219 350.753906 L 356.347656 350.636719 L 356.363281 350.515625 L 356.375 350.382812 L 356.378906 350.25 L 356.367188 349.96875 L 356.328125 349.714844 L 356.265625 349.496094 L 356.179688 349.304688 L 356.066406 349.140625 L 355.929688 349.007812 L 355.769531 348.902344 L 355.582031 348.832031 L 355.367188 348.785156 L 355.132812 348.769531 Z M 353.707031 347.90625 L 355.027344 347.90625 L 355.128906 347.902344 L 355.230469 347.890625 L 355.328125 347.875 L 355.417969 347.847656 L 355.507812 347.816406 L 355.589844 347.777344 L 355.671875 347.730469 L 355.746094 347.675781 L 355.816406 347.617188 L 355.882812 347.546875 L 355.949219 347.472656 L 356.003906 347.394531 L 356.054688 347.308594 L 356.097656 347.222656 L 356.132812 347.128906 L 356.164062 347.03125 L 356.1875 346.929688 L 356.203125 346.820312 L 356.210938 346.710938 L 356.214844 346.59375 L 356.214844 346.460938 L 356.203125 346.335938 L 356.1875 346.222656 L 356.167969 346.113281 L 356.140625 346.011719 L 356.109375 345.917969 L 356.070312 345.832031 L 356.027344 345.75 L 355.976562 345.679688 L 355.917969 345.617188 L 355.855469 345.558594 L 355.785156 345.503906 L 355.710938 345.457031 L 355.628906 345.417969 L 355.542969 345.382812 L 355.449219 345.355469 L 355.347656 345.335938 L 355.242188 345.320312 L 355.128906 345.308594 L 353.707031 345.308594 Z M 353.707031 347.90625 "/>
<path style=" stroke:none;fill-rule:nonzero;fill:rgb(30.196078%,30.196078%,30.196078%);fill-opacity:1;" d="M 361.414062 348.210938 L 363.261719 348.210938 L 363.261719 349.191406 L 361.414062 349.191406 L 361.414062 351.777344 L 360.417969 351.777344 L 360.417969 349.191406 L 358.550781 349.191406 L 358.550781 348.210938 L 360.417969 348.210938 L 360.417969 345.824219 L 361.414062 345.824219 Z M 361.414062 348.210938 "/>
<path style=" stroke:none;fill-rule:nonzero;fill:rgb(30.196078%,30.196078%,30.196078%);fill-opacity:1;" d="M 426.308594 350 L 426.289062 350.257812 L 426.257812 350.5 L 426.214844 350.734375 L 426.15625 350.953125 L 426.089844 351.160156 L 426.011719 351.355469 L 425.917969 351.539062 L 425.8125 351.707031 L 425.695312 351.867188 L 425.566406 352.011719 L 425.429688 352.144531 L 425.277344 352.261719 L 425.117188 352.367188 L 424.945312 352.457031 L 424.761719 352.535156 L 424.566406 352.597656 L 424.359375 352.644531 L 424.144531 352.679688 L 423.914062 352.699219 L 423.675781 352.707031 L 423.433594 352.699219 L 423.203125 352.671875 L 422.984375 352.625 L 422.773438 352.558594 L 422.570312 352.472656 L 422.382812 352.371094 L 422.203125 352.25 L 422.03125 352.109375 L 421.871094 351.953125 L 421.722656 351.777344 L 421.582031 351.582031 L 421.460938 351.375 L 421.351562 351.152344 L 421.257812 350.917969 L 421.179688 350.671875 L 421.113281 350.410156 L 421.0625 350.136719 L 421.027344 349.851562 L 421.003906 349.550781 L 420.996094 349.238281 L 420.996094 347.753906 L 421.003906 347.441406 L 421.027344 347.144531 L 421.0625 346.859375 L 421.117188 346.585938 L 421.183594 346.328125 L 421.265625 346.082031 L 421.359375 345.851562 L 421.472656 345.632812 L 421.597656 345.425781 L 421.738281 345.234375 L 421.894531 345.058594 L 422.058594 344.898438 L 422.234375 344.761719 L 422.421875 344.640625 L 422.621094 344.539062 L 422.828125 344.457031 L 423.046875 344.390625 L 423.277344 344.34375 L 423.519531 344.316406 L 423.769531 344.308594 L 424.003906 344.3125 L 424.222656 344.335938 L 424.433594 344.371094 L 424.632812 344.421875 L 424.820312 344.484375 L 425 344.5625 L 425.164062 344.65625 L 425.320312 344.761719 L 425.46875 344.886719 L 425.601562 345.019531 L 425.726562 345.167969 L 425.839844 345.328125 L 425.9375 345.5 L 426.027344 345.683594 L 426.105469 345.878906 L 426.167969 346.089844 L 426.222656 346.3125 L 426.261719 346.542969 L 426.292969 346.789062 L 426.308594 347.046875 L 425.269531 347.046875 L 425.253906 346.851562 L 425.230469 346.671875 L 425.203125 346.5 L 425.171875 346.339844 L 425.132812 346.191406 L 425.085938 346.054688 L 425.035156 345.929688 L 424.980469 345.816406 L 424.917969 345.710938 L 424.847656 345.621094 L 424.773438 345.539062 L 424.691406 345.46875 L 424.601562 345.402344 L 424.507812 345.347656 L 424.402344 345.300781 L 424.292969 345.261719 L 424.171875 345.234375 L 424.046875 345.210938 L 423.914062 345.199219 L 423.769531 345.195312 L 423.609375 345.199219 L 423.453125 345.21875 L 423.304688 345.253906 L 423.164062 345.300781 L 423.03125 345.359375 L 422.90625 345.429688 L 422.789062 345.515625 L 422.679688 345.613281 L 422.578125 345.726562 L 422.484375 345.851562 L 422.398438 345.988281 L 422.324219 346.136719 L 422.257812 346.296875 L 422.199219 346.46875 L 422.148438 346.65625 L 422.109375 346.851562 L 422.078125 347.0625 L 422.054688 347.285156 L 422.039062 347.519531 L 422.035156 347.765625 L 422.035156 349.265625 L 422.039062 349.507812 L 422.050781 349.738281 L 422.074219 349.957031 L 422.101562 350.164062 L 422.140625 350.363281 L 422.183594 350.546875 L 422.238281 350.71875 L 422.300781 350.878906 L 422.371094 351.03125 L 422.453125 351.167969 L 422.539062 351.292969 L 422.636719 351.40625 L 422.738281 351.507812 L 422.847656 351.59375 L 422.96875 351.664062 L 423.09375 351.726562 L 423.226562 351.773438 L 423.371094 351.804688 L 423.519531 351.824219 L 423.675781 351.832031 L 423.832031 351.828125 L 423.980469 351.816406 L 424.117188 351.796875 L 424.246094 351.769531 L 424.367188 351.730469 L 424.476562 351.6875 L 424.578125 351.636719 L 424.671875 351.578125 L 424.757812 351.507812 L 424.832031 351.433594 L 424.898438 351.347656 L 424.964844 351.246094 L 425.019531 351.136719 L 425.070312 351.011719 L 425.117188 350.875 L 425.160156 350.726562 L 425.195312 350.5625 L 425.226562 350.390625 L 425.25 350.203125 L 425.269531 350 Z M 426.308594 350 "/>
<path style=" stroke:none;fill-rule:nonzero;fill:rgb(30.196078%,30.196078%,30.196078%);fill-opacity:1;" d="M 490.65625 350 L 490.636719 350.257812 L 490.605469 350.5 L 490.558594 350.734375 L 490.503906 350.953125 L 490.4375 351.160156 L 490.355469 351.355469 L 490.261719 351.539062 L 490.160156 351.707031 L 490.042969 351.867188 L 489.914062 352.011719 L 489.773438 352.144531 L 489.625 352.261719 L 489.460938 352.367188 L 489.289062 352.457031 L 489.105469 352.535156 L 488.910156 352.597656 L 488.707031 352.644531 L 488.488281 352.679688 L 488.261719 352.699219 L 488.019531 352.707031 L 487.78125 352.699219 L 487.550781 352.671875 L 487.328125 352.625 L 487.117188 352.558594 L 486.917969 352.472656 L 486.726562 352.371094 L 486.546875 352.25 L 486.378906 352.109375 L 486.21875 351.953125 L 486.066406 351.777344 L 485.929688 351.582031 L 485.804688 351.375 L 485.699219 351.152344 L 485.605469 350.917969 L 485.523438 350.671875 L 485.457031 350.410156 L 485.40625 350.136719 L 485.371094 349.851562 L 485.351562 349.550781 L 485.34375 349.238281 L 485.34375 347.753906 L 485.351562 347.441406 L 485.371094 347.144531 L 485.410156 346.859375 L 485.460938 346.585938 L 485.527344 346.328125 L 485.609375 346.082031 L 485.707031 345.851562 L 485.816406 345.632812 L 485.941406 345.425781 L 486.085938 345.234375 L 486.238281 345.058594 L 486.40625 344.898438 L 486.582031 344.761719 L 486.769531 344.640625 L 486.964844 344.539062 L 487.175781 344.457031 L 487.394531 344.390625 L 487.625 344.34375 L 487.863281 344.316406 L 488.117188 344.308594 L 488.347656 344.3125 L 488.570312 344.335938 L 488.777344 344.371094 L 488.976562 344.421875 L 489.167969 344.484375 L 489.34375 344.5625 L 489.511719 344.65625 L 489.667969 344.761719 L 489.8125 344.886719 L 489.949219 345.019531 L 490.070312 345.167969 L 490.183594 345.328125 L 490.285156 345.5 L 490.375 345.683594 L 490.449219 345.878906 L 490.515625 346.089844 L 490.566406 346.3125 L 490.609375 346.542969 L 490.636719 346.789062 L 490.65625 347.046875 L 489.617188 347.046875 L 489.601562 346.851562 L 489.578125 346.671875 L 489.550781 346.5 L 489.515625 346.339844 L 489.476562 346.191406 L 489.433594 346.054688 L 489.382812 345.929688 L 489.324219 345.816406 L 489.261719 345.710938 L 489.195312 345.621094 L 489.121094 345.539062 L 489.039062 345.46875 L 488.949219 345.402344 L 488.851562 345.347656 L 488.75 345.300781 L 488.636719 345.261719 L 488.519531 345.234375 L 488.390625 345.210938 L 488.257812 345.199219 L 488.117188 345.195312 L 487.953125 345.199219 L 487.796875 345.21875 L 487.648438 345.253906 L 487.507812 345.300781 L 487.378906 345.359375 L 487.253906 345.429688 L 487.136719 345.515625 L 487.027344 345.613281 L 486.925781 345.726562 L 486.832031 345.851562 L 486.746094 345.988281 L 486.667969 346.136719 L 486.601562 346.296875 L 486.542969 346.46875 L 486.492188 346.65625 L 486.453125 346.851562 L 486.421875 347.0625 L 486.398438 347.285156 L 486.386719 347.519531 L 486.382812 347.765625 L 486.382812 349.265625 L 486.386719 349.507812 L 486.398438 349.738281 L 486.417969 349.957031 L 486.449219 350.164062 L 486.484375 350.363281 L 486.53125 350.546875 L 486.585938 350.71875 L 486.648438 350.878906 L 486.71875 351.03125 L 486.796875 351.167969 L 486.886719 351.292969 L 486.980469 351.40625 L 487.085938 351.507812 L 487.195312 351.59375 L 487.3125 351.664062 L 487.441406 351.726562 L 487.574219 351.773438 L 487.714844 351.804688 L 487.863281 351.824219 L 488.019531 351.832031 L 488.175781 351.828125 L 488.324219 351.816406 L 488.460938 351.796875 L 488.59375 351.769531 L 488.710938 351.730469 L 488.824219 351.6875 L 488.925781 351.636719 L 489.019531 351.578125 L 489.101562 351.507812 L 489.179688 351.433594 L 489.246094 351.347656 L 489.308594 351.246094 L 489.367188 351.136719 L 489.417969 351.011719 L 489.464844 350.875 L 489.503906 350.726562 L 489.542969 350.5625 L 489.570312 350.390625 L 489.597656 350.203125 L 489.617188 350 Z M 490.65625 350 "/>
<path style=" stroke:none;fill-rule:nonzero;fill:rgb(30.196078%,30.196078%,30.196078%);fill-opacity:1;" d="M 493.75 349.546875 L 491.429688 349.546875 L 491.429688 348.699219 L 493.75 348.699219 Z M 493.75 349.546875 "/>
<path style=" stroke:none;fill-rule:nonzero;fill:rgb(30.196078%,30.196078%,30.196078%);fill-opacity:1;" d="M 554.996094 350 L 554.976562 350.257812 L 554.945312 350.5 L 554.902344 350.734375 L 554.847656 350.953125 L 554.777344 351.160156 L 554.699219 351.355469 L 554.605469 351.539062 L 554.503906 351.707031 L 554.386719 351.867188 L 554.257812 352.011719 L 554.117188 352.144531 L 553.96875 352.261719 L 553.804688 352.367188 L 553.632812 352.457031 L 553.449219 352.535156 L 553.253906 352.597656 L 553.046875 352.644531 L 552.832031 352.679688 L 552.605469 352.699219 L 552.363281 352.707031 L 552.125 352.699219 L 551.894531 352.671875 L 551.671875 352.625 L 551.460938 352.558594 L 551.261719 352.472656 L 551.070312 352.371094 L 550.890625 352.25 L 550.71875 352.109375 L 550.558594 351.953125 L 550.410156 351.777344 L 550.273438 351.582031 L 550.148438 351.375 L 550.039062 351.152344 L 549.945312 350.917969 L 549.867188 350.671875 L 549.800781 350.410156 L 549.75 350.136719 L 549.714844 349.851562 L 549.691406 349.550781 L 549.6875 349.238281 L 549.6875 347.753906 L 549.691406 347.441406 L 549.714844 347.144531 L 549.753906 346.859375 L 549.804688 346.585938 L 549.871094 346.328125 L 549.953125 346.082031 L 550.050781 345.851562 L 550.160156 345.632812 L 550.285156 345.425781 L 550.425781 345.234375 L 550.582031 345.058594 L 550.746094 344.898438 L 550.921875 344.761719 L 551.109375 344.640625 L 551.308594 344.539062 L 551.515625 344.457031 L 551.738281 344.390625 L 551.96875 344.34375 L 552.207031 344.316406 L 552.460938 344.308594 L 552.691406 344.3125 L 552.914062 344.335938 L 553.121094 344.371094 L 553.320312 344.421875 L 553.511719 344.484375 L 553.6875 344.5625 L 553.855469 344.65625 L 554.011719 344.761719 L 554.15625 344.886719 L 554.289062 345.019531 L 554.414062 345.167969 L 554.527344 345.328125 L 554.628906 345.5 L 554.714844 345.683594 L 554.792969 345.878906 L 554.859375 346.089844 L 554.910156 346.3125 L 554.953125 346.542969 L 554.980469 346.789062 L 554.996094 347.046875 L 553.960938 347.046875 L 553.941406 346.851562 L 553.921875 346.671875 L 553.894531 346.5 L 553.859375 346.339844 L 553.820312 346.191406 L 553.773438 346.054688 L 553.722656 345.929688 L 553.667969 345.816406 L 553.605469 345.710938 L 553.539062 345.621094 L 553.464844 345.539062 L 553.382812 345.46875 L 553.292969 345.402344 L 553.195312 345.347656 L 553.089844 345.300781 L 552.980469 345.261719 L 552.859375 345.234375 L 552.734375 345.210938 L 552.601562 345.199219 L 552.460938 345.195312 L 552.296875 345.199219 L 552.140625 345.21875 L 551.992188 345.253906 L 551.851562 345.300781 L 551.71875 345.359375 L 551.59375 345.429688 L 551.476562 345.515625 L 551.367188 345.613281 L 551.269531 345.726562 L 551.175781 345.851562 L 551.089844 345.988281 L 551.011719 346.136719 L 550.945312 346.296875 L 550.886719 346.46875 L 550.835938 346.65625 L 550.796875 346.851562 L 550.765625 347.0625 L 550.742188 347.285156 L 550.730469 347.519531 L 550.726562 347.765625 L 550.726562 349.265625 L 550.730469 349.507812 L 550.742188 349.738281 L 550.761719 349.957031 L 550.792969 350.164062 L 550.828125 350.363281 L 550.875 350.546875 L 550.929688 350.71875 L 550.992188 350.878906 L 551.0625 351.03125 L 551.140625 351.167969 L 551.226562 351.292969 L 551.324219 351.40625 L 551.425781 351.507812 L 551.539062 351.59375 L 551.65625 351.664062 L 551.78125 351.726562 L 551.917969 351.773438 L 552.058594 351.804688 L 552.207031 351.824219 L 552.363281 351.832031 L 552.519531 351.828125 L 552.667969 351.816406 L 552.804688 351.796875 L 552.933594 351.769531 L 553.054688 351.730469 L 553.167969 351.6875 L 553.269531 351.636719 L 553.363281 351.578125 L 553.445312 351.507812 L 553.519531 351.433594 L 553.589844 351.347656 L 553.652344 351.246094 L 553.710938 351.136719 L 553.761719 351.011719 L 553.808594 350.875 L 553.847656 350.726562 L 553.882812 350.5625 L 553.914062 350.390625 L 553.941406 350.203125 L 553.960938 350 Z M 554.996094 350 "/>
<path style=" stroke:none;fill-rule:nonzero;fill:rgb(30.196078%,30.196078%,30.196078%);fill-opacity:1;" d="M 558.855469 348.210938 L 560.703125 348.210938 L 560.703125 349.191406 L 558.855469 349.191406 L 558.855469 351.777344 L 557.855469 351.777344 L 557.855469 349.191406 L 555.992188 349.191406 L 555.992188 348.210938 L 557.855469 348.210938 L 557.855469 345.824219 L 558.855469 345.824219 Z M 558.855469 348.210938 "/>
<path style=" stroke:none;fill-rule:nonzero;fill:rgb(30.196078%,30.196078%,30.196078%);fill-opacity:1;" d="M 615.621094 352.59375 L 615.621094 344.417969 L 617.570312 344.417969 L 617.847656 344.429688 L 618.117188 344.457031 L 618.371094 344.5 L 618.613281 344.5625 L 618.839844 344.644531 L 619.058594 344.742188 L 619.261719 344.859375 L 619.449219 344.996094 L 619.628906 345.148438 L 619.792969 345.316406 L 619.945312 345.503906 L 620.078125 345.703125 L 620.195312 345.917969 L 620.300781 346.148438 L 620.386719 346.394531 L 620.457031 346.652344 L 620.511719 346.925781 L 620.554688 347.214844 L 620.578125 347.515625 L 620.585938 347.832031 L 620.585938 349.203125 L 620.578125 349.519531 L 620.550781 349.824219 L 620.511719 350.109375 L 620.457031 350.382812 L 620.382812 350.640625 L 620.296875 350.886719 L 620.191406 351.113281 L 620.070312 351.328125 L 619.933594 351.527344 L 619.78125 351.714844 L 619.613281 351.882812 L 619.429688 352.03125 L 619.234375 352.164062 L 619.023438 352.277344 L 618.796875 352.375 L 618.558594 352.453125 L 618.300781 352.515625 L 618.035156 352.558594 L 617.75 352.585938 L 617.453125 352.59375 Z M 616.648438 345.308594 L 616.648438 351.714844 L 617.472656 351.714844 L 617.683594 351.707031 L 617.882812 351.6875 L 618.070312 351.65625 L 618.246094 351.613281 L 618.410156 351.558594 L 618.5625 351.492188 L 618.703125 351.410156 L 618.835938 351.316406 L 618.953125 351.214844 L 619.058594 351.097656 L 619.152344 350.964844 L 619.238281 350.824219 L 619.3125 350.667969 L 619.378906 350.503906 L 619.433594 350.324219 L 619.480469 350.132812 L 619.519531 349.933594 L 619.542969 349.71875 L 619.5625 349.492188 L 619.566406 349.253906 L 619.566406 347.804688 L 619.5625 347.554688 L 619.546875 347.316406 L 619.523438 347.09375 L 619.488281 346.882812 L 619.445312 346.6875 L 619.386719 346.503906 L 619.324219 346.335938 L 619.25 346.179688 L 619.164062 346.039062 L 619.070312 345.914062 L 618.964844 345.796875 L 618.851562 345.695312 L 618.726562 345.605469 L 618.589844 345.523438 L 618.445312 345.457031 L 618.292969 345.402344 L 618.125 345.359375 L 617.949219 345.332031 L 617.765625 345.3125 L 617.570312 345.308594 Z M 616.648438 345.308594 "/>
<path style=" stroke:none;fill-rule:nonzero;fill:rgb(30.196078%,30.196078%,30.196078%);fill-opacity:1;" d="M 624.648438 348.210938 L 626.496094 348.210938 L 626.496094 349.191406 L 624.648438 349.191406 L 624.648438 351.777344 L 623.652344 351.777344 L 623.652344 349.191406 L 621.785156 349.191406 L 621.785156 348.210938 L 623.652344 348.210938 L 623.652344 345.824219 L 624.648438 345.824219 Z M 624.648438 348.210938 "/>
<path style=" stroke:none;fill-rule:nonzero;fill:rgb(30.196078%,30.196078%,30.196078%);fill-opacity:1;" d="M 688.59375 348.816406 L 685.703125 348.816406 L 685.703125 351.714844 L 689.070312 351.714844 L 689.070312 352.59375 L 684.675781 352.59375 L 684.675781 344.417969 L 689.015625 344.417969 L 689.015625 345.308594 L 685.703125 345.308594 L 685.703125 347.933594 L 688.59375 347.933594 Z M 688.59375 348.816406 "/>
</g>
</svg>
